solid RpiCase
facet normal 0.0 -1.0 0.0
  outer loop
    vertex 6075.000000000002 5245.000000000001 1799.9999999999989
    vertex 925.0000000000026 5245.000000000001 1599.9999999999989
    vertex 6075.000000000002 5245.000000000001 1599.9999999999989
  endloop
endfacet
facet normal 0.0 -1.0 0.0
  outer loop
    vertex 925.0000000000026 5245.000000000001 1599.9999999999989
    vertex 6075.000000000002 5245.000000000001 1799.9999999999989
    vertex 925.0000000000026 5245.000000000001 1799.9999999999989
  endloop
endfacet
facet normal -0.0 -0.6890425384778527 -0.7247208981173353
  outer loop
    vertex 6075.000000000002 5240.736572700979 1552.7934290574742
    vertex 925.0000000000026 5237.042624127702 1556.3055227594084
    vertex 925.0000000000026 5240.736572700979 1552.7934290574742
  endloop
endfacet
facet normal -0.0 -0.6890425384778527 -0.7247208981173353
  outer loop
    vertex 925.0000000000026 5237.042624127702 1556.3055227594084
    vertex 6075.000000000002 5240.736572700979 1552.7934290574742
    vertex 6075.000000000002 5237.042624127702 1556.3055227594084
  endloop
endfacet
facet normal -0.0 -0.8077390741010465 -0.5895401497526561
  outer loop
    vertex 6075.000000000002 5234.037700438146 1560.4226202628856
    vertex 925.0000000000026 5237.042624127702 1556.3055227594084
    vertex 6075.000000000002 5237.042624127702 1556.3055227594084
  endloop
endfacet
facet normal -0.0 -0.8077390741010465 -0.5895401497526561
  outer loop
    vertex 925.0000000000026 5237.042624127702 1556.3055227594084
    vertex 6075.000000000002 5234.037700438146 1560.4226202628856
    vertex 925.0000000000026 5234.037700438146 1560.4226202628856
  endloop
endfacet
facet normal -1.0 0.0 0.0
  outer loop
    vertex 925.0000000000026 5805.000000000001 1799.9999999999993
    vertex 925.0000000000026 5245.000000000001 1599.9999999999989
    vertex 925.0000000000026 5245.000000000001 1799.9999999999989
  endloop
endfacet
facet normal -1.0 0.0 0.0
  outer loop
    vertex 925.0000000000026 5245.000000000001 1599.9999999999989
    vertex 925.0000000000026 5805.000000000001 1799.9999999999993
    vertex 925.0000000000026 5245.000000000001 1549.9999999999989
  endloop
endfacet
facet normal -1.0 0.0 0.0
  outer loop
    vertex 925.0000000000026 5245.000000000001 1549.9999999999989
    vertex 925.0000000000026 5805.000000000001 1799.9999999999993
    vertex 925.0000000000026 5805.000000000001 1549.9999999999993
  endloop
endfacet
facet normal -1.0 0.0 0.0
  outer loop
    vertex 925.0000000000026 5230.458471615881 1580.0764024673592
    vertex 925.0000000000026 5230.458471615881 1569.9235975326383
    vertex 925.0000000000026 5230.000000000001 1574.9999999999989
  endloop
endfacet
facet normal -1.0 0.0 0.0
  outer loop
    vertex 925.0000000000026 5230.458471615881 1569.9235975326383
    vertex 925.0000000000026 5230.458471615881 1580.0764024673592
    vertex 925.0000000000026 5231.819049083104 1584.9885188329267
  endloop
endfacet
facet normal -1.0 0.0 0.0
  outer loop
    vertex 925.0000000000026 5230.458471615881 1569.9235975326383
    vertex 925.0000000000026 5231.819049083104 1584.9885188329267
    vertex 925.0000000000026 5231.819049083104 1565.011481167071
  endloop
endfacet
facet normal -1.0 0.0 0.0
  outer loop
    vertex 925.0000000000026 5231.819049083104 1565.011481167071
    vertex 925.0000000000026 5231.819049083104 1584.9885188329267
    vertex 925.0000000000026 5234.037700438146 1589.577379737112
  endloop
endfacet
facet normal -1.0 0.0 0.0
  outer loop
    vertex 925.0000000000026 5231.819049083104 1565.011481167071
    vertex 925.0000000000026 5234.037700438146 1589.577379737112
    vertex 925.0000000000026 5234.037700438146 1560.4226202628856
  endloop
endfacet
facet normal -1.0 0.0 0.0
  outer loop
    vertex 925.0000000000026 5234.037700438146 1560.4226202628856
    vertex 925.0000000000026 5234.037700438146 1589.577379737112
    vertex 925.0000000000026 5237.042624127702 1593.694477240589
  endloop
endfacet
facet normal -1.0 0.0 0.0
  outer loop
    vertex 925.0000000000026 5234.037700438146 1560.4226202628856
    vertex 925.0000000000026 5237.042624127702 1593.694477240589
    vertex 925.0000000000026 5237.042624127702 1556.3055227594084
  endloop
endfacet
facet normal -1.0 0.0 0.0
  outer loop
    vertex 925.0000000000026 5237.042624127702 1556.3055227594084
    vertex 925.0000000000026 5237.042624127702 1593.694477240589
    vertex 925.0000000000026 5240.736572700979 1597.2065709425233
  endloop
endfacet
facet normal -1.0 0.0 0.0
  outer loop
    vertex 925.0000000000026 5237.042624127702 1556.3055227594084
    vertex 925.0000000000026 5240.736572700979 1597.2065709425233
    vertex 925.0000000000026 5240.736572700979 1552.7934290574742
  endloop
endfacet
facet normal -1.0 0.0 0.0
  outer loop
    vertex 925.0000000000026 5240.736572700979 1552.7934290574742
    vertex 925.0000000000026 5240.736572700979 1597.2065709425233
    vertex 925.0000000000026 5245.000000000001 1599.9999999999989
  endloop
endfacet
facet normal -1.0 0.0 0.0
  outer loop
    vertex 925.0000000000026 5240.736572700979 1552.7934290574742
    vertex 925.0000000000026 5245.000000000001 1599.9999999999989
    vertex 925.0000000000026 5245.000000000001 1549.9999999999989
  endloop
endfacet
facet normal -0.0 -0.963714928210755 -0.26693358189583294
  outer loop
    vertex 6075.000000000002 5230.458471615881 1569.9235975326383
    vertex 925.0000000000026 5231.819049083104 1565.011481167071
    vertex 6075.000000000002 5231.819049083104 1565.011481167071
  endloop
endfacet
facet normal -0.0 -0.963714928210755 -0.26693358189583294
  outer loop
    vertex 925.0000000000026 5231.819049083104 1565.011481167071
    vertex 6075.000000000002 5230.458471615881 1569.9235975326383
    vertex 925.0000000000026 5230.458471615881 1569.9235975326383
  endloop
endfacet
facet normal 0.0 -0.6890425384778527 0.7247208981173353
  outer loop
    vertex 6075.000000000002 5237.042624127702 1593.694477240589
    vertex 925.0000000000026 5240.736572700979 1597.2065709425233
    vertex 925.0000000000026 5237.042624127702 1593.694477240589
  endloop
endfacet
facet normal 0.0 -0.6890425384778527 0.7247208981173353
  outer loop
    vertex 925.0000000000026 5240.736572700979 1597.2065709425233
    vertex 6075.000000000002 5237.042624127702 1593.694477240589
    vertex 6075.000000000002 5240.736572700979 1597.2065709425233
  endloop
endfacet
facet normal 0.0 -0.995946446565097 0.08994818271847697
  outer loop
    vertex 6075.000000000002 5230.458471615881 1580.0764024673592
    vertex 925.0000000000026 5230.000000000001 1574.9999999999989
    vertex 6075.000000000002 5230.000000000001 1574.9999999999989
  endloop
endfacet
facet normal 0.0 -0.995946446565097 0.08994818271847697
  outer loop
    vertex 925.0000000000026 5230.000000000001 1574.9999999999989
    vertex 6075.000000000002 5230.458471615881 1580.0764024673592
    vertex 925.0000000000026 5230.458471615881 1580.0764024673592
  endloop
endfacet
facet normal 0.0 -0.5480467243116428 0.836447719807567
  outer loop
    vertex 6075.000000000002 5240.736572700979 1597.2065709425233
    vertex 925.0000000000026 5245.000000000001 1599.9999999999989
    vertex 925.0000000000026 5240.736572700979 1597.2065709425233
  endloop
endfacet
facet normal 0.0 -0.5480467243116428 0.836447719807567
  outer loop
    vertex 925.0000000000026 5245.000000000001 1599.9999999999989
    vertex 6075.000000000002 5240.736572700979 1597.2065709425233
    vertex 6075.000000000002 5245.000000000001 1599.9999999999989
  endloop
endfacet
facet normal 0.0 -0.8077390741010465 0.5895401497526561
  outer loop
    vertex 6075.000000000002 5237.042624127702 1593.694477240589
    vertex 925.0000000000026 5234.037700438146 1589.577379737112
    vertex 6075.000000000002 5234.037700438146 1589.577379737112
  endloop
endfacet
facet normal 0.0 -0.8077390741010465 0.5895401497526561
  outer loop
    vertex 925.0000000000026 5234.037700438146 1589.577379737112
    vertex 6075.000000000002 5237.042624127702 1593.694477240589
    vertex 925.0000000000026 5237.042624127702 1593.694477240589
  endloop
endfacet
facet normal -0.0 -0.995946446565097 -0.08994818271847697
  outer loop
    vertex 6075.000000000002 5230.000000000001 1574.9999999999989
    vertex 925.0000000000026 5230.458471615881 1569.9235975326383
    vertex 6075.000000000002 5230.458471615881 1569.9235975326383
  endloop
endfacet
facet normal -0.0 -0.995946446565097 -0.08994818271847697
  outer loop
    vertex 925.0000000000026 5230.458471615881 1569.9235975326383
    vertex 6075.000000000002 5230.000000000001 1574.9999999999989
    vertex 925.0000000000026 5230.000000000001 1574.9999999999989
  endloop
endfacet
facet normal 0.0 -0.9002949905351718 0.4352802890291208
  outer loop
    vertex 6075.000000000002 5234.037700438146 1589.577379737112
    vertex 925.0000000000026 5231.819049083104 1584.9885188329267
    vertex 6075.000000000002 5231.819049083104 1584.9885188329267
  endloop
endfacet
facet normal 0.0 -0.9002949905351718 0.4352802890291208
  outer loop
    vertex 925.0000000000026 5231.819049083104 1584.9885188329267
    vertex 6075.000000000002 5234.037700438146 1589.577379737112
    vertex 925.0000000000026 5234.037700438146 1589.577379737112
  endloop
endfacet
facet normal 0.0 -0.9637149282107577 0.26693358189582383
  outer loop
    vertex 6075.000000000002 5231.819049083104 1584.9885188329267
    vertex 925.0000000000026 5230.458471615881 1580.0764024673592
    vertex 6075.000000000002 5230.458471615881 1580.0764024673592
  endloop
endfacet
facet normal 0.0 -0.9637149282107577 0.26693358189582383
  outer loop
    vertex 925.0000000000026 5230.458471615881 1580.0764024673592
    vertex 6075.000000000002 5231.819049083104 1584.9885188329267
    vertex 925.0000000000026 5231.819049083104 1584.9885188329267
  endloop
endfacet
facet normal 4.108962480385226e-33 -0.5480467243116182 -0.8364477198075834
  outer loop
    vertex 6075.000000000002 5245.000000000001 1549.9999999999989
    vertex 925.0000000000026 5240.736572700979 1552.7934290574742
    vertex 925.0000000000026 5245.000000000001 1549.9999999999989
  endloop
endfacet
facet normal 4.108962480385226e-33 -0.5480467243116182 -0.8364477198075834
  outer loop
    vertex 925.0000000000026 5240.736572700979 1552.7934290574742
    vertex 6075.000000000002 5245.000000000001 1549.9999999999989
    vertex 6075.000000000002 5240.736572700979 1552.7934290574742
  endloop
endfacet
facet normal -0.0 -0.9002949905351785 -0.4352802890291069
  outer loop
    vertex 6075.000000000002 5231.819049083104 1565.011481167071
    vertex 925.0000000000026 5234.037700438146 1560.4226202628856
    vertex 6075.000000000002 5234.037700438146 1560.4226202628856
  endloop
endfacet
facet normal -0.0 -0.9002949905351785 -0.4352802890291069
  outer loop
    vertex 925.0000000000026 5234.037700438146 1560.4226202628856
    vertex 6075.000000000002 5231.819049083104 1565.011481167071
    vertex 925.0000000000026 5231.819049083104 1565.011481167071
  endloop
endfacet
facet normal -3.504424366661466e-17 3.222818837197599e-16 -1.0
  outer loop
    vertex 6075.000000000002 5805.000000000001 1549.9999999999989
    vertex 925.0000000000026 5245.000000000001 1549.9999999999989
    vertex 925.0000000000026 5805.000000000001 1549.9999999999993
  endloop
endfacet
facet normal -3.504424366661466e-17 3.222818837197599e-16 -1.0
  outer loop
    vertex 925.0000000000026 5245.000000000001 1549.9999999999989
    vertex 6075.000000000002 5805.000000000001 1549.9999999999989
    vertex 6075.000000000002 5245.000000000001 1549.9999999999989
  endloop
endfacet
facet normal 1.2225923677556123e-16 -0.7071067811865456 0.7071067811865495
  outer loop
    vertex 6170.000000000002 5150.000000000001 1799.9999999999989
    vertex 930.0000000000024 5250.000000000002 1899.9999999999995
    vertex 830.0000000000025 5150.000000000001 1800.0
  endloop
endfacet
facet normal 1.2225923677556123e-16 -0.7071067811865456 0.7071067811865495
  outer loop
    vertex 930.0000000000024 5250.000000000002 1899.9999999999995
    vertex 6170.000000000002 5150.000000000001 1799.9999999999989
    vertex 6070.000000000001 5250.000000000002 1899.9999999999989
  endloop
endfacet
facet normal -0.7071067811865476 -1.6113689369788872e-16 0.7071067811865475
  outer loop
    vertex 930.0000000000024 5250.000000000002 1899.9999999999995
    vertex 830.0000000000025 5899.999999999999 1800.0
    vertex 830.0000000000025 5150.000000000001 1800.0
  endloop
endfacet
facet normal -0.7071067811865476 -1.6113689369788872e-16 0.7071067811865475
  outer loop
    vertex 830.0000000000025 5899.999999999999 1800.0
    vertex 930.0000000000024 5250.000000000002 1899.9999999999995
    vertex 930.0000000000024 5799.999999999999 1900.0
  endloop
endfacet
facet normal 2.6724310612675426e-32 0.7071067811865488 0.7071067811865462
  outer loop
    vertex 930.0000000000024 5799.999999999999 1900.0
    vertex 6170.000000000002 5899.999999999999 1800.0
    vertex 830.0000000000025 5899.999999999999 1800.0
  endloop
endfacet
facet normal 2.6724310612675426e-32 0.7071067811865488 0.7071067811865462
  outer loop
    vertex 6170.000000000002 5899.999999999999 1800.0
    vertex 930.0000000000024 5799.999999999999 1900.0
    vertex 6070.000000000001 5799.999999999999 1900.0
  endloop
endfacet
facet normal 7.022484625800212e-17 -1.3125662173313905e-15 1.0
  outer loop
    vertex 6070.000000000001 5250.000000000002 1899.9999999999989
    vertex 930.0000000000024 5799.999999999999 1900.0
    vertex 930.0000000000024 5250.000000000002 1899.9999999999995
  endloop
endfacet
facet normal 7.022484625800212e-17 -1.3125662173313905e-15 1.0
  outer loop
    vertex 930.0000000000024 5799.999999999999 1900.0
    vertex 6070.000000000001 5250.000000000002 1899.9999999999989
    vertex 6070.000000000001 5799.999999999999 1900.0
  endloop
endfacet
facet normal -1.0139205330509295e-16 7.21911419532264e-16 -1.0
  outer loop
    vertex 830.0000000000025 5899.999999999999 1800.0
    vertex 925.0000000000026 5805.000000000001 1799.9999999999993
    vertex 830.0000000000025 5150.000000000001 1800.0
  endloop
endfacet
facet normal -1.0139205330509295e-16 7.21911419532264e-16 -1.0
  outer loop
    vertex 925.0000000000026 5805.000000000001 1799.9999999999993
    vertex 830.0000000000025 5899.999999999999 1800.0
    vertex 6170.000000000002 5899.999999999999 1800.0
  endloop
endfacet
facet normal -1.0139205330509295e-16 7.21911419532264e-16 -1.0
  outer loop
    vertex 925.0000000000026 5805.000000000001 1799.9999999999993
    vertex 6170.000000000002 5899.999999999999 1800.0
    vertex 6075.000000000002 5805.000000000001 1799.9999999999989
  endloop
endfacet
facet normal -1.0139205330509295e-16 7.21911419532264e-16 -1.0
  outer loop
    vertex 6075.000000000002 5805.000000000001 1799.9999999999989
    vertex 6170.000000000002 5899.999999999999 1800.0
    vertex 6075.000000000002 5245.000000000001 1799.9999999999989
  endloop
endfacet
facet normal -1.0139205330509295e-16 7.21911419532264e-16 -1.0
  outer loop
    vertex 830.0000000000025 5150.000000000001 1800.0
    vertex 925.0000000000026 5245.000000000001 1799.9999999999989
    vertex 6170.000000000002 5150.000000000001 1799.9999999999989
  endloop
endfacet
facet normal -1.0139205330509295e-16 7.21911419532264e-16 -1.0
  outer loop
    vertex 925.0000000000026 5245.000000000001 1799.9999999999989
    vertex 830.0000000000025 5150.000000000001 1800.0
    vertex 925.0000000000026 5805.000000000001 1799.9999999999993
  endloop
endfacet
facet normal -1.0139205330509295e-16 7.21911419532264e-16 -1.0
  outer loop
    vertex 6170.000000000002 5150.000000000001 1799.9999999999989
    vertex 925.0000000000026 5245.000000000001 1799.9999999999989
    vertex 6075.000000000002 5245.000000000001 1799.9999999999989
  endloop
endfacet
facet normal -1.0139205330509295e-16 7.21911419532264e-16 -1.0
  outer loop
    vertex 6170.000000000002 5150.000000000001 1799.9999999999989
    vertex 6075.000000000002 5245.000000000001 1799.9999999999989
    vertex 6170.000000000002 5899.999999999999 1800.0
  endloop
endfacet
facet normal 0.7071067811865462 -1.1504424736105102e-15 0.7071067811865488
  outer loop
    vertex 6170.000000000002 5150.000000000001 1799.9999999999989
    vertex 6070.000000000001 5799.999999999999 1900.0
    vertex 6070.000000000001 5250.000000000002 1899.9999999999989
  endloop
endfacet
facet normal 0.7071067811865462 -1.1504424736105102e-15 0.7071067811865488
  outer loop
    vertex 6070.000000000001 5799.999999999999 1900.0
    vertex 6170.000000000002 5150.000000000001 1799.9999999999989
    vertex 6170.000000000002 5899.999999999999 1800.0
  endloop
endfacet
facet normal 2.2588249724821675e-32 1.0 3.222818837197599e-16
  outer loop
    vertex 925.0000000000026 5805.000000000001 1549.9999999999993
    vertex 6075.000000000002 5805.000000000001 1799.9999999999989
    vertex 6075.000000000002 5805.000000000001 1549.9999999999989
  endloop
endfacet
facet normal 2.2588249724821675e-32 1.0 3.222818837197599e-16
  outer loop
    vertex 6075.000000000002 5805.000000000001 1799.9999999999989
    vertex 925.0000000000026 5805.000000000001 1549.9999999999993
    vertex 925.0000000000026 5805.000000000001 1799.9999999999993
  endloop
endfacet
facet normal 1.0 0.0 0.0
  outer loop
    vertex 6075.000000000002 5230.458471615881 1569.9235975326383
    vertex 6075.000000000002 5230.458471615881 1580.0764024673592
    vertex 6075.000000000002 5230.000000000001 1574.9999999999989
  endloop
endfacet
facet normal 1.0 0.0 0.0
  outer loop
    vertex 6075.000000000002 5230.458471615881 1580.0764024673592
    vertex 6075.000000000002 5230.458471615881 1569.9235975326383
    vertex 6075.000000000002 5231.819049083104 1565.011481167071
  endloop
endfacet
facet normal 1.0 0.0 0.0
  outer loop
    vertex 6075.000000000002 5230.458471615881 1580.0764024673592
    vertex 6075.000000000002 5231.819049083104 1565.011481167071
    vertex 6075.000000000002 5231.819049083104 1584.9885188329267
  endloop
endfacet
facet normal 1.0 0.0 0.0
  outer loop
    vertex 6075.000000000002 5231.819049083104 1584.9885188329267
    vertex 6075.000000000002 5231.819049083104 1565.011481167071
    vertex 6075.000000000002 5234.037700438146 1560.4226202628856
  endloop
endfacet
facet normal 1.0 0.0 0.0
  outer loop
    vertex 6075.000000000002 5231.819049083104 1584.9885188329267
    vertex 6075.000000000002 5234.037700438146 1560.4226202628856
    vertex 6075.000000000002 5234.037700438146 1589.577379737112
  endloop
endfacet
facet normal 1.0 0.0 0.0
  outer loop
    vertex 6075.000000000002 5234.037700438146 1589.577379737112
    vertex 6075.000000000002 5234.037700438146 1560.4226202628856
    vertex 6075.000000000002 5237.042624127702 1556.3055227594084
  endloop
endfacet
facet normal 1.0 0.0 0.0
  outer loop
    vertex 6075.000000000002 5234.037700438146 1589.577379737112
    vertex 6075.000000000002 5237.042624127702 1556.3055227594084
    vertex 6075.000000000002 5237.042624127702 1593.694477240589
  endloop
endfacet
facet normal 1.0 0.0 0.0
  outer loop
    vertex 6075.000000000002 5237.042624127702 1593.694477240589
    vertex 6075.000000000002 5237.042624127702 1556.3055227594084
    vertex 6075.000000000002 5240.736572700979 1552.7934290574742
  endloop
endfacet
facet normal 1.0 0.0 0.0
  outer loop
    vertex 6075.000000000002 5237.042624127702 1593.694477240589
    vertex 6075.000000000002 5240.736572700979 1552.7934290574742
    vertex 6075.000000000002 5240.736572700979 1597.2065709425233
  endloop
endfacet
facet normal 1.0 0.0 0.0
  outer loop
    vertex 6075.000000000002 5240.736572700979 1597.2065709425233
    vertex 6075.000000000002 5240.736572700979 1552.7934290574742
    vertex 6075.000000000002 5245.000000000001 1549.9999999999989
  endloop
endfacet
facet normal 1.0 0.0 0.0
  outer loop
    vertex 6075.000000000002 5240.736572700979 1597.2065709425233
    vertex 6075.000000000002 5245.000000000001 1549.9999999999989
    vertex 6075.000000000002 5245.000000000001 1599.9999999999989
  endloop
endfacet
facet normal 1.0 0.0 0.0
  outer loop
    vertex 6075.000000000002 5245.000000000001 1599.9999999999989
    vertex 6075.000000000002 5245.000000000001 1549.9999999999989
    vertex 6075.000000000002 5805.000000000001 1549.9999999999989
  endloop
endfacet
facet normal 1.0 0.0 0.0
  outer loop
    vertex 6075.000000000002 5245.000000000001 1599.9999999999989
    vertex 6075.000000000002 5805.000000000001 1549.9999999999989
    vertex 6075.000000000002 5245.000000000001 1799.9999999999989
  endloop
endfacet
facet normal 1.0 0.0 0.0
  outer loop
    vertex 6075.000000000002 5245.000000000001 1799.9999999999989
    vertex 6075.000000000002 5805.000000000001 1549.9999999999989
    vertex 6075.000000000002 5805.000000000001 1799.9999999999989
  endloop
endfacet
endsolid RpiCase
