solid RpiCase
facet normal -1.0 0.0 0.0
  outer loop
    vertex 925.0000000000026 5250.000000000002 1874.999999999997
    vertex 925.0000000000026 5230.000000000001 1724.9999999999986
    vertex 925.0000000000026 5230.000000000001 1874.9999999999989
  endloop
endfacet
facet normal -1.0 0.0 0.0
  outer loop
    vertex 925.0000000000026 5230.000000000001 1724.9999999999986
    vertex 925.0000000000026 5250.000000000002 1874.999999999997
    vertex 925.0000000000026 5330.000000000001 1624.9999999999986
  endloop
endfacet
facet normal -1.0 0.0 0.0
  outer loop
    vertex 925.0000000000026 5330.000000000001 1624.9999999999986
    vertex 925.0000000000026 5250.000000000002 1874.999999999997
    vertex 925.0000000000026 5405.000000000001 1874.9999999999984
  endloop
endfacet
facet normal -1.0 0.0 0.0
  outer loop
    vertex 925.0000000000026 5330.000000000001 1624.9999999999986
    vertex 925.0000000000026 5405.000000000001 1874.9999999999984
    vertex 925.0000000000026 5405.000000000001 1624.9999999999989
  endloop
endfacet
facet normal 1.2225923677556123e-16 -0.7071067811865456 0.7071067811865495
  outer loop
    vertex 6170.000000000002 5150.000000000001 1874.9999999999989
    vertex 930.0000000000024 5250.000000000002 1974.999999999999
    vertex 830.0000000000025 5150.000000000001 1874.9999999999995
  endloop
endfacet
facet normal 1.2225923677556123e-16 -0.7071067811865456 0.7071067811865495
  outer loop
    vertex 930.0000000000024 5250.000000000002 1974.999999999999
    vertex 6170.000000000002 5150.000000000001 1874.9999999999989
    vertex 6070.000000000001 5250.000000000002 1974.9999999999984
  endloop
endfacet
facet normal -0.7071067811865476 -1.6113689369788872e-16 0.7071067811865475
  outer loop
    vertex 930.0000000000024 5250.000000000002 1974.999999999999
    vertex 830.0000000000025 5899.999999999999 1874.9999999999995
    vertex 830.0000000000025 5150.000000000001 1874.9999999999995
  endloop
endfacet
facet normal -0.7071067811865476 -1.6113689369788872e-16 0.7071067811865475
  outer loop
    vertex 830.0000000000025 5899.999999999999 1874.9999999999995
    vertex 930.0000000000024 5250.000000000002 1974.999999999999
    vertex 930.0000000000024 5799.999999999999 1974.9999999999998
  endloop
endfacet
facet normal 2.6724310612675426e-32 0.7071067811865488 0.7071067811865462
  outer loop
    vertex 930.0000000000024 5799.999999999999 1974.9999999999998
    vertex 6170.000000000002 5899.999999999999 1874.9999999999995
    vertex 830.0000000000025 5899.999999999999 1874.9999999999995
  endloop
endfacet
facet normal 2.6724310612675426e-32 0.7071067811865488 0.7071067811865462
  outer loop
    vertex 6170.000000000002 5899.999999999999 1874.9999999999995
    vertex 930.0000000000024 5799.999999999999 1974.9999999999998
    vertex 6070.000000000001 5799.999999999999 1974.9999999999998
  endloop
endfacet
facet normal -6.75947022033953e-17 4.812742796881761e-16 -1.0
  outer loop
    vertex 1465.000000000003 5445.0 1874.999999999998
    vertex 925.0000000000026 5405.000000000001 1874.9999999999984
    vertex 925.0000000000026 5445.0 1874.9999999999984
  endloop
endfacet
facet normal -6.75947022033953e-17 4.812742796881761e-16 -1.0
  outer loop
    vertex 925.0000000000026 5405.000000000001 1874.9999999999984
    vertex 1465.000000000003 5445.0 1874.999999999998
    vertex 1425.0000000000027 5405.000000000001 1874.999999999998
  endloop
endfacet
facet normal -6.75947022033953e-17 4.812742796881761e-16 -1.0
  outer loop
    vertex 1425.0000000000027 5405.000000000001 1874.999999999998
    vertex 1465.000000000003 5445.0 1874.999999999998
    vertex 1425.0000000000034 5250.000000000002 1874.9999999999973
  endloop
endfacet
facet normal -6.75947022033953e-17 4.812742796881761e-16 -1.0
  outer loop
    vertex 3250.000000000003 5800.000000000002 1874.9999999999989
    vertex 3250.0000000000014 5645.000000000001 1874.999999999998
    vertex 3250.0000000000027 5820.000000000001 1874.9999999999984
  endloop
endfacet
facet normal -6.75947022033953e-17 4.812742796881761e-16 -1.0
  outer loop
    vertex 3250.000000000003 5250.000000000002 1874.9999999999977
    vertex 3250.0000000000027 5230.000000000001 1874.999999999998
    vertex 3250.0000000000027 5405.000000000001 1874.999999999998
  endloop
endfacet
facet normal -6.75947022033953e-17 4.812742796881761e-16 -1.0
  outer loop
    vertex 3790.0000000000023 5445.0 1874.999999999997
    vertex 3250.0000000000027 5405.000000000001 1874.999999999998
    vertex 3210.0000000000005 5445.0 1874.999999999997
  endloop
endfacet
facet normal -6.75947022033953e-17 4.812742796881761e-16 -1.0
  outer loop
    vertex 3250.0000000000027 5405.000000000001 1874.999999999998
    vertex 3790.0000000000023 5445.0 1874.999999999997
    vertex 3750.0000000000027 5405.000000000001 1874.9999999999984
  endloop
endfacet
facet normal -6.75947022033953e-17 4.812742796881761e-16 -1.0
  outer loop
    vertex 3750.0000000000027 5405.000000000001 1874.9999999999984
    vertex 3790.0000000000023 5445.0 1874.999999999997
    vertex 3750.0000000000027 5250.000000000002 1874.999999999998
  endloop
endfacet
facet normal -6.75947022033953e-17 4.812742796881761e-16 -1.0
  outer loop
    vertex 3750.0000000000027 5250.000000000002 1874.999999999998
    vertex 3790.0000000000023 5445.0 1874.999999999997
    vertex 3750.0000000000027 5230.000000000001 1874.9999999999984
  endloop
endfacet
facet normal -6.75947022033953e-17 4.812742796881761e-16 -1.0
  outer loop
    vertex 3210.000000000001 5605.000000000002 1874.9999999999973
    vertex 3250.0000000000014 5645.000000000001 1874.999999999998
    vertex 3790.0000000000023 5605.000000000002 1874.999999999997
  endloop
endfacet
facet normal -6.75947022033953e-17 4.812742796881761e-16 -1.0
  outer loop
    vertex 3250.0000000000014 5645.000000000001 1874.999999999998
    vertex 3210.000000000001 5605.000000000002 1874.9999999999973
    vertex 3210.0000000000027 5800.000000000002 1874.9999999999989
  endloop
endfacet
facet normal -6.75947022033953e-17 4.812742796881761e-16 -1.0
  outer loop
    vertex 3790.0000000000023 5605.000000000002 1874.999999999997
    vertex 3250.0000000000014 5645.000000000001 1874.999999999998
    vertex 3750.0000000000027 5645.000000000001 1874.9999999999984
  endloop
endfacet
facet normal -6.75947022033953e-17 4.812742796881761e-16 -1.0
  outer loop
    vertex 3790.0000000000023 5605.000000000002 1874.999999999997
    vertex 3750.0000000000027 5645.000000000001 1874.9999999999984
    vertex 3790.0000000000023 5800.000000000002 1874.999999999998
  endloop
endfacet
facet normal -6.75947022033953e-17 4.812742796881761e-16 -1.0
  outer loop
    vertex 1425.0000000000032 5645.000000000001 1874.9999999999984
    vertex 925.0000000000026 5605.000000000002 1874.9999999999989
    vertex 925.0000000000026 5645.000000000001 1874.9999999999989
  endloop
endfacet
facet normal -6.75947022033953e-17 4.812742796881761e-16 -1.0
  outer loop
    vertex 925.0000000000026 5605.000000000002 1874.9999999999989
    vertex 1425.0000000000032 5645.000000000001 1874.9999999999984
    vertex 1465.0000000000032 5605.000000000002 1874.9999999999989
  endloop
endfacet
facet normal -6.75947022033953e-17 4.812742796881761e-16 -1.0
  outer loop
    vertex 1425.0000000000032 5645.000000000001 1874.9999999999984
    vertex 1425.000000000003 5800.000000000002 1874.9999999999989
    vertex 1425.0000000000032 5820.0 1874.9999999999984
  endloop
endfacet
facet normal -6.75947022033953e-17 4.812742796881761e-16 -1.0
  outer loop
    vertex 830.0000000000025 5899.999999999999 1874.9999999999995
    vertex 925.0000000000026 5820.0 1874.9999999999989
    vertex 830.0000000000025 5150.000000000001 1874.9999999999995
  endloop
endfacet
facet normal -6.75947022033953e-17 4.812742796881761e-16 -1.0
  outer loop
    vertex 925.0000000000026 5820.0 1874.9999999999989
    vertex 830.0000000000025 5899.999999999999 1874.9999999999995
    vertex 6170.000000000002 5899.999999999999 1874.9999999999995
  endloop
endfacet
facet normal -6.75947022033953e-17 4.812742796881761e-16 -1.0
  outer loop
    vertex 925.0000000000026 5820.0 1874.9999999999989
    vertex 6170.000000000002 5899.999999999999 1874.9999999999995
    vertex 1425.0000000000032 5820.0 1874.9999999999984
  endloop
endfacet
facet normal -6.75947022033953e-17 4.812742796881761e-16 -1.0
  outer loop
    vertex 1425.0000000000032 5820.0 1874.9999999999984
    vertex 6170.000000000002 5899.999999999999 1874.9999999999995
    vertex 1465.0000000000034 5800.000000000002 1874.999999999998
  endloop
endfacet
facet normal -6.75947022033953e-17 4.812742796881761e-16 -1.0
  outer loop
    vertex 1425.0000000000032 5820.0 1874.9999999999984
    vertex 1465.0000000000034 5800.000000000002 1874.999999999998
    vertex 1425.0000000000032 5645.000000000001 1874.9999999999984
  endloop
endfacet
facet normal -6.75947022033953e-17 4.812742796881761e-16 -1.0
  outer loop
    vertex 1425.0000000000032 5645.000000000001 1874.9999999999984
    vertex 1465.0000000000034 5800.000000000002 1874.999999999998
    vertex 1465.0000000000032 5605.000000000002 1874.9999999999989
  endloop
endfacet
facet normal -6.75947022033953e-17 4.812742796881761e-16 -1.0
  outer loop
    vertex 1465.0000000000034 5800.000000000002 1874.999999999998
    vertex 6170.000000000002 5899.999999999999 1874.9999999999995
    vertex 3250.0000000000027 5820.000000000001 1874.9999999999984
  endloop
endfacet
facet normal -6.75947022033953e-17 4.812742796881761e-16 -1.0
  outer loop
    vertex 1465.0000000000034 5800.000000000002 1874.999999999998
    vertex 3250.0000000000027 5820.000000000001 1874.9999999999984
    vertex 3210.0000000000027 5800.000000000002 1874.9999999999989
  endloop
endfacet
facet normal -6.75947022033953e-17 4.812742796881761e-16 -1.0
  outer loop
    vertex 3210.0000000000027 5800.000000000002 1874.9999999999989
    vertex 3250.0000000000027 5820.000000000001 1874.9999999999984
    vertex 3250.0000000000014 5645.000000000001 1874.999999999998
  endloop
endfacet
facet normal -6.75947022033953e-17 4.812742796881761e-16 -1.0
  outer loop
    vertex 3250.0000000000027 5820.000000000001 1874.9999999999984
    vertex 6170.000000000002 5899.999999999999 1874.9999999999995
    vertex 3750.0000000000027 5820.000000000001 1874.9999999999989
  endloop
endfacet
facet normal -6.75947022033953e-17 4.812742796881761e-16 -1.0
  outer loop
    vertex 3750.0000000000027 5820.000000000001 1874.9999999999989
    vertex 6170.000000000002 5899.999999999999 1874.9999999999995
    vertex 3750.0000000000027 5800.000000000002 1874.9999999999989
  endloop
endfacet
facet normal -6.75947022033953e-17 4.812742796881761e-16 -1.0
  outer loop
    vertex 3750.0000000000027 5800.000000000002 1874.9999999999989
    vertex 6170.000000000002 5899.999999999999 1874.9999999999995
    vertex 3790.0000000000023 5800.000000000002 1874.999999999998
  endloop
endfacet
facet normal -6.75947022033953e-17 4.812742796881761e-16 -1.0
  outer loop
    vertex 3750.0000000000027 5800.000000000002 1874.9999999999989
    vertex 3790.0000000000023 5800.000000000002 1874.999999999998
    vertex 3750.0000000000027 5645.000000000001 1874.9999999999984
  endloop
endfacet
facet normal -6.75947022033953e-17 4.812742796881761e-16 -1.0
  outer loop
    vertex 3790.0000000000023 5800.000000000002 1874.999999999998
    vertex 6170.000000000002 5899.999999999999 1874.9999999999995
    vertex 5575.000000000001 5820.000000000002 1874.999999999998
  endloop
endfacet
facet normal -6.75947022033953e-17 4.812742796881761e-16 -1.0
  outer loop
    vertex 3790.0000000000023 5800.000000000002 1874.999999999998
    vertex 5575.000000000001 5820.000000000002 1874.999999999998
    vertex 5535.000000000002 5800.000000000002 1874.9999999999984
  endloop
endfacet
facet normal -6.75947022033953e-17 4.812742796881761e-16 -1.0
  outer loop
    vertex 5535.000000000002 5800.000000000002 1874.9999999999984
    vertex 5575.000000000001 5820.000000000002 1874.999999999998
    vertex 5535.000000000002 5605.000000000002 1874.999999999997
  endloop
endfacet
facet normal -6.75947022033953e-17 4.812742796881761e-16 -1.0
  outer loop
    vertex 5575.000000000001 5820.000000000002 1874.999999999998
    vertex 6170.000000000002 5899.999999999999 1874.9999999999995
    vertex 6075.000000000002 5820.000000000002 1874.9999999999989
  endloop
endfacet
facet normal -6.75947022033953e-17 4.812742796881761e-16 -1.0
  outer loop
    vertex 6075.000000000002 5820.000000000002 1874.9999999999989
    vertex 6170.000000000002 5899.999999999999 1874.9999999999995
    vertex 6075.000000000002 5800.000000000002 1874.9999999999989
  endloop
endfacet
facet normal -6.75947022033953e-17 4.812742796881761e-16 -1.0
  outer loop
    vertex 6075.000000000002 5800.000000000002 1874.9999999999989
    vertex 6170.000000000002 5899.999999999999 1874.9999999999995
    vertex 6075.000000000002 5645.000000000001 1874.9999999999984
  endloop
endfacet
facet normal -6.75947022033953e-17 4.812742796881761e-16 -1.0
  outer loop
    vertex 6075.000000000002 5645.000000000001 1874.9999999999984
    vertex 6170.000000000002 5899.999999999999 1874.9999999999995
    vertex 6075.000000000002 5605.000000000002 1874.999999999998
  endloop
endfacet
facet normal -6.75947022033953e-17 4.812742796881761e-16 -1.0
  outer loop
    vertex 6075.000000000002 5605.000000000002 1874.999999999998
    vertex 6170.000000000002 5899.999999999999 1874.9999999999995
    vertex 6075.000000000002 5445.0 1874.9999999999966
  endloop
endfacet
facet normal -6.75947022033953e-17 4.812742796881761e-16 -1.0
  outer loop
    vertex 6075.000000000002 5445.0 1874.9999999999966
    vertex 6170.000000000002 5899.999999999999 1874.9999999999995
    vertex 6075.000000000002 5405.000000000001 1874.9999999999984
  endloop
endfacet
facet normal -6.75947022033953e-17 4.812742796881761e-16 -1.0
  outer loop
    vertex 6075.000000000002 5405.000000000001 1874.9999999999984
    vertex 6170.000000000002 5899.999999999999 1874.9999999999995
    vertex 6075.000000000002 5250.000000000002 1874.9999999999977
  endloop
endfacet
facet normal -6.75947022033953e-17 4.812742796881761e-16 -1.0
  outer loop
    vertex 6075.000000000002 5250.000000000002 1874.9999999999977
    vertex 6170.000000000002 5899.999999999999 1874.9999999999995
    vertex 6075.000000000002 5230.000000000002 1874.9999999999989
  endloop
endfacet
facet normal -6.75947022033953e-17 4.812742796881761e-16 -1.0
  outer loop
    vertex 830.0000000000025 5150.000000000001 1874.9999999999995
    vertex 925.0000000000026 5230.000000000001 1874.9999999999989
    vertex 6170.000000000002 5150.000000000001 1874.9999999999989
  endloop
endfacet
facet normal -6.75947022033953e-17 4.812742796881761e-16 -1.0
  outer loop
    vertex 925.0000000000026 5230.000000000001 1874.9999999999989
    vertex 830.0000000000025 5150.000000000001 1874.9999999999995
    vertex 925.0000000000026 5820.0 1874.9999999999989
  endloop
endfacet
facet normal -6.75947022033953e-17 4.812742796881761e-16 -1.0
  outer loop
    vertex 925.0000000000026 5230.000000000001 1874.9999999999989
    vertex 925.0000000000026 5820.0 1874.9999999999989
    vertex 925.0000000000026 5800.000000000002 1874.999999999999
  endloop
endfacet
facet normal -6.75947022033953e-17 4.812742796881761e-16 -1.0
  outer loop
    vertex 925.0000000000026 5230.000000000001 1874.9999999999989
    vertex 925.0000000000026 5800.000000000002 1874.999999999999
    vertex 925.0000000000026 5645.000000000001 1874.9999999999989
  endloop
endfacet
facet normal -6.75947022033953e-17 4.812742796881761e-16 -1.0
  outer loop
    vertex 925.0000000000026 5230.000000000001 1874.9999999999989
    vertex 925.0000000000026 5645.000000000001 1874.9999999999989
    vertex 925.0000000000026 5605.000000000002 1874.9999999999989
  endloop
endfacet
facet normal -6.75947022033953e-17 4.812742796881761e-16 -1.0
  outer loop
    vertex 925.0000000000026 5230.000000000001 1874.9999999999989
    vertex 925.0000000000026 5605.000000000002 1874.9999999999989
    vertex 925.0000000000026 5445.0 1874.9999999999984
  endloop
endfacet
facet normal -6.75947022033953e-17 4.812742796881761e-16 -1.0
  outer loop
    vertex 925.0000000000026 5230.000000000001 1874.9999999999989
    vertex 925.0000000000026 5445.0 1874.9999999999984
    vertex 925.0000000000026 5405.000000000001 1874.9999999999984
  endloop
endfacet
facet normal -6.75947022033953e-17 4.812742796881761e-16 -1.0
  outer loop
    vertex 925.0000000000026 5230.000000000001 1874.9999999999989
    vertex 925.0000000000026 5405.000000000001 1874.9999999999984
    vertex 925.0000000000026 5250.000000000002 1874.999999999997
  endloop
endfacet
facet normal -6.75947022033953e-17 4.812742796881761e-16 -1.0
  outer loop
    vertex 6170.000000000002 5150.000000000001 1874.9999999999989
    vertex 925.0000000000026 5230.000000000001 1874.9999999999989
    vertex 1425.0000000000034 5230.000000000001 1874.999999999998
  endloop
endfacet
facet normal -6.75947022033953e-17 4.812742796881761e-16 -1.0
  outer loop
    vertex 6170.000000000002 5150.000000000001 1874.9999999999989
    vertex 1425.0000000000034 5230.000000000001 1874.999999999998
    vertex 1425.0000000000034 5250.000000000002 1874.9999999999973
  endloop
endfacet
facet normal -6.75947022033953e-17 4.812742796881761e-16 -1.0
  outer loop
    vertex 6170.000000000002 5150.000000000001 1874.9999999999989
    vertex 1425.0000000000034 5250.000000000002 1874.9999999999973
    vertex 1465.0000000000032 5250.000000000002 1874.9999999999973
  endloop
endfacet
facet normal -6.75947022033953e-17 4.812742796881761e-16 -1.0
  outer loop
    vertex 1465.0000000000032 5250.000000000002 1874.9999999999973
    vertex 1425.0000000000034 5250.000000000002 1874.9999999999973
    vertex 1465.000000000003 5445.0 1874.999999999998
  endloop
endfacet
facet normal -6.75947022033953e-17 4.812742796881761e-16 -1.0
  outer loop
    vertex 6170.000000000002 5150.000000000001 1874.9999999999989
    vertex 1465.0000000000032 5250.000000000002 1874.9999999999973
    vertex 3250.0000000000027 5230.000000000001 1874.999999999998
  endloop
endfacet
facet normal -6.75947022033953e-17 4.812742796881761e-16 -1.0
  outer loop
    vertex 3250.0000000000027 5230.000000000001 1874.999999999998
    vertex 1465.0000000000032 5250.000000000002 1874.9999999999973
    vertex 3209.999999999999 5250.000000000002 1874.9999999999966
  endloop
endfacet
facet normal -6.75947022033953e-17 4.812742796881761e-16 -1.0
  outer loop
    vertex 3250.0000000000027 5230.000000000001 1874.999999999998
    vertex 3209.999999999999 5250.000000000002 1874.9999999999966
    vertex 3210.0000000000005 5445.0 1874.999999999997
  endloop
endfacet
facet normal -6.75947022033953e-17 4.812742796881761e-16 -1.0
  outer loop
    vertex 3250.0000000000027 5230.000000000001 1874.999999999998
    vertex 3210.0000000000005 5445.0 1874.999999999997
    vertex 3250.0000000000027 5405.000000000001 1874.999999999998
  endloop
endfacet
facet normal -6.75947022033953e-17 4.812742796881761e-16 -1.0
  outer loop
    vertex 6170.000000000002 5150.000000000001 1874.9999999999989
    vertex 3250.0000000000027 5230.000000000001 1874.999999999998
    vertex 3750.0000000000027 5230.000000000001 1874.9999999999984
  endloop
endfacet
facet normal -6.75947022033953e-17 4.812742796881761e-16 -1.0
  outer loop
    vertex 6170.000000000002 5150.000000000001 1874.9999999999989
    vertex 3750.0000000000027 5230.000000000001 1874.9999999999984
    vertex 3790.0000000000023 5250.000000000002 1874.9999999999973
  endloop
endfacet
facet normal -6.75947022033953e-17 4.812742796881761e-16 -1.0
  outer loop
    vertex 3790.0000000000023 5250.000000000002 1874.9999999999973
    vertex 3750.0000000000027 5230.000000000001 1874.9999999999984
    vertex 3790.0000000000023 5445.0 1874.999999999997
  endloop
endfacet
facet normal -6.75947022033953e-17 4.812742796881761e-16 -1.0
  outer loop
    vertex 6170.000000000002 5150.000000000001 1874.9999999999989
    vertex 3790.0000000000023 5250.000000000002 1874.9999999999973
    vertex 5575.000000000001 5230.000000000002 1874.9999999999984
  endloop
endfacet
facet normal -6.75947022033953e-17 4.812742796881761e-16 -1.0
  outer loop
    vertex 5575.000000000001 5230.000000000002 1874.9999999999984
    vertex 3790.0000000000023 5250.000000000002 1874.9999999999973
    vertex 5535.000000000002 5250.000000000002 1874.9999999999984
  endloop
endfacet
facet normal -6.75947022033953e-17 4.812742796881761e-16 -1.0
  outer loop
    vertex 5575.000000000001 5230.000000000002 1874.9999999999984
    vertex 5535.000000000002 5250.000000000002 1874.9999999999984
    vertex 5575.000000000001 5405.000000000001 1874.9999999999984
  endloop
endfacet
facet normal -6.75947022033953e-17 4.812742796881761e-16 -1.0
  outer loop
    vertex 5575.000000000001 5230.000000000002 1874.9999999999984
    vertex 5575.000000000001 5405.000000000001 1874.9999999999984
    vertex 5575.000000000001 5250.000000000002 1874.999999999998
  endloop
endfacet
facet normal -6.75947022033953e-17 4.812742796881761e-16 -1.0
  outer loop
    vertex 6170.000000000002 5150.000000000001 1874.9999999999989
    vertex 5575.000000000001 5230.000000000002 1874.9999999999984
    vertex 6075.000000000002 5230.000000000002 1874.9999999999989
  endloop
endfacet
facet normal -6.75947022033953e-17 4.812742796881761e-16 -1.0
  outer loop
    vertex 6170.000000000002 5150.000000000001 1874.9999999999989
    vertex 6075.000000000002 5230.000000000002 1874.9999999999989
    vertex 6170.000000000002 5899.999999999999 1874.9999999999995
  endloop
endfacet
facet normal -6.75947022033953e-17 4.812742796881761e-16 -1.0
  outer loop
    vertex 5535.000000000002 5445.0 1874.9999999999964
    vertex 5575.000000000001 5405.000000000001 1874.9999999999984
    vertex 5535.000000000002 5250.000000000002 1874.9999999999984
  endloop
endfacet
facet normal -6.75947022033953e-17 4.812742796881761e-16 -1.0
  outer loop
    vertex 5575.000000000001 5405.000000000001 1874.9999999999984
    vertex 5535.000000000002 5445.0 1874.9999999999964
    vertex 6075.000000000002 5445.0 1874.9999999999966
  endloop
endfacet
facet normal -6.75947022033953e-17 4.812742796881761e-16 -1.0
  outer loop
    vertex 5575.000000000001 5405.000000000001 1874.9999999999984
    vertex 6075.000000000002 5445.0 1874.9999999999966
    vertex 6075.000000000002 5405.000000000001 1874.9999999999984
  endloop
endfacet
facet normal -6.75947022033953e-17 4.812742796881761e-16 -1.0
  outer loop
    vertex 5535.000000000002 5605.000000000002 1874.999999999997
    vertex 5575.000000000001 5645.000000000001 1874.9999999999984
    vertex 6075.000000000002 5605.000000000002 1874.999999999998
  endloop
endfacet
facet normal -6.75947022033953e-17 4.812742796881761e-16 -1.0
  outer loop
    vertex 5575.000000000001 5645.000000000001 1874.9999999999984
    vertex 5535.000000000002 5605.000000000002 1874.999999999997
    vertex 5575.000000000001 5820.000000000002 1874.999999999998
  endloop
endfacet
facet normal -6.75947022033953e-17 4.812742796881761e-16 -1.0
  outer loop
    vertex 5575.000000000001 5645.000000000001 1874.9999999999984
    vertex 5575.000000000001 5820.000000000002 1874.999999999998
    vertex 5575.000000000001 5800.000000000002 1874.9999999999984
  endloop
endfacet
facet normal -6.75947022033953e-17 4.812742796881761e-16 -1.0
  outer loop
    vertex 6075.000000000002 5605.000000000002 1874.999999999998
    vertex 5575.000000000001 5645.000000000001 1874.9999999999984
    vertex 6075.000000000002 5645.000000000001 1874.9999999999984
  endloop
endfacet
facet normal 0.7071067811865462 -1.1504424736105102e-15 0.7071067811865488
  outer loop
    vertex 6170.000000000002 5150.000000000001 1874.9999999999989
    vertex 6070.000000000001 5799.999999999999 1974.9999999999998
    vertex 6070.000000000001 5250.000000000002 1974.9999999999984
  endloop
endfacet
facet normal 0.7071067811865462 -1.1504424736105102e-15 0.7071067811865488
  outer loop
    vertex 6070.000000000001 5799.999999999999 1974.9999999999998
    vertex 6170.000000000002 5150.000000000001 1874.9999999999989
    vertex 6170.000000000002 5899.999999999999 1874.9999999999995
  endloop
endfacet
facet normal 0.0 1.0 0.0
  outer loop
    vertex 925.0000000000026 5820.0 1874.9999999999989
    vertex 1425.000000000003 5820.0 1724.9999999999982
    vertex 925.0000000000024 5820.0 1724.9999999999982
  endloop
endfacet
facet normal 0.0 1.0 0.0
  outer loop
    vertex 1425.000000000003 5820.0 1724.9999999999982
    vertex 925.0000000000026 5820.0 1874.9999999999989
    vertex 1425.0000000000032 5820.0 1874.9999999999984
  endloop
endfacet
facet normal 1.0 0.0 0.0
  outer loop
    vertex 6075.000000000002 5720.000000000002 1624.9999999999989
    vertex 6075.000000000002 5645.000000000001 1874.9999999999984
    vertex 6075.000000000002 5645.000000000001 1624.9999999999986
  endloop
endfacet
facet normal 1.0 0.0 0.0
  outer loop
    vertex 6075.000000000002 5645.000000000001 1874.9999999999984
    vertex 6075.000000000002 5720.000000000002 1624.9999999999989
    vertex 6075.000000000002 5800.000000000002 1874.9999999999989
  endloop
endfacet
facet normal 1.0 0.0 0.0
  outer loop
    vertex 6075.000000000002 5800.000000000002 1874.9999999999989
    vertex 6075.000000000002 5720.000000000002 1624.9999999999989
    vertex 6075.000000000002 5820.000000000002 1724.9999999999986
  endloop
endfacet
facet normal 1.0 0.0 0.0
  outer loop
    vertex 6075.000000000002 5800.000000000002 1874.9999999999989
    vertex 6075.000000000002 5820.000000000002 1724.9999999999986
    vertex 6075.000000000002 5820.000000000002 1874.9999999999989
  endloop
endfacet
facet normal 0.0 -1.0 0.0
  outer loop
    vertex 6075.000000000002 5230.000000000002 1874.9999999999989
    vertex 5575.000000000002 5230.000000000002 1724.9999999999986
    vertex 6075.000000000002 5230.000000000002 1724.9999999999986
  endloop
endfacet
facet normal 0.0 -1.0 0.0
  outer loop
    vertex 5575.000000000002 5230.000000000002 1724.9999999999986
    vertex 6075.000000000002 5230.000000000002 1874.9999999999989
    vertex 5575.000000000001 5230.000000000002 1874.9999999999984
  endloop
endfacet
facet normal 0.0 -1.0 0.0
  outer loop
    vertex 6075.000000000002 5645.000000000001 1874.9999999999984
    vertex 5575.000000000001 5645.000000000001 1624.9999999999989
    vertex 6075.000000000002 5645.000000000001 1624.9999999999986
  endloop
endfacet
facet normal 0.0 -1.0 0.0
  outer loop
    vertex 5575.000000000001 5645.000000000001 1624.9999999999989
    vertex 6075.000000000002 5645.000000000001 1874.9999999999984
    vertex 5575.000000000001 5645.000000000001 1874.9999999999984
  endloop
endfacet
facet normal 0.0 1.0 0.0
  outer loop
    vertex 925.0000000000026 5405.000000000001 1624.9999999999989
    vertex 1425.0000000000027 5405.000000000001 1874.999999999998
    vertex 1425.0000000000027 5405.000000000001 1624.9999999999986
  endloop
endfacet
facet normal 0.0 1.0 0.0
  outer loop
    vertex 1425.0000000000027 5405.000000000001 1874.999999999998
    vertex 925.0000000000026 5405.000000000001 1624.9999999999989
    vertex 925.0000000000026 5405.000000000001 1874.9999999999984
  endloop
endfacet
facet normal -1.0 -4.4349188344260717e-16 2.0399364926031557e-16
  outer loop
    vertex 925.0000000000026 5800.000000000002 1874.999999999999
    vertex 925.0000000000026 5645.000000000001 1624.9999999999989
    vertex 925.0000000000026 5645.000000000001 1874.9999999999989
  endloop
endfacet
facet normal -1.0 -4.4349188344260717e-16 2.0399364926031557e-16
  outer loop
    vertex 925.0000000000026 5645.000000000001 1624.9999999999989
    vertex 925.0000000000026 5800.000000000002 1874.999999999999
    vertex 925.0000000000026 5720.000000000002 1624.9999999999984
  endloop
endfacet
facet normal -1.0 -4.4349188344260717e-16 2.0399364926031557e-16
  outer loop
    vertex 925.0000000000026 5720.000000000002 1624.9999999999984
    vertex 925.0000000000026 5800.000000000002 1874.999999999999
    vertex 925.0000000000024 5820.0 1724.9999999999982
  endloop
endfacet
facet normal -1.0 -4.4349188344260717e-16 2.0399364926031557e-16
  outer loop
    vertex 925.0000000000024 5820.0 1724.9999999999982
    vertex 925.0000000000026 5800.000000000002 1874.999999999999
    vertex 925.0000000000026 5820.0 1874.9999999999989
  endloop
endfacet
facet normal 1.0 1.7739675337704362e-15 8.159745970412588e-16
  outer loop
    vertex 6075.000000000002 5330.000000000001 1624.9999999999986
    vertex 6075.000000000002 5230.000000000002 1874.9999999999989
    vertex 6075.000000000002 5230.000000000002 1724.9999999999986
  endloop
endfacet
facet normal 1.0 1.7739675337704362e-15 8.159745970412588e-16
  outer loop
    vertex 6075.000000000002 5230.000000000002 1874.9999999999989
    vertex 6075.000000000002 5330.000000000001 1624.9999999999986
    vertex 6075.000000000002 5250.000000000002 1874.9999999999977
  endloop
endfacet
facet normal 1.0 1.7739675337704362e-15 8.159745970412588e-16
  outer loop
    vertex 6075.000000000002 5250.000000000002 1874.9999999999977
    vertex 6075.000000000002 5330.000000000001 1624.9999999999986
    vertex 6075.000000000002 5405.000000000001 1874.9999999999984
  endloop
endfacet
facet normal 1.0 1.7739675337704362e-15 8.159745970412588e-16
  outer loop
    vertex 6075.000000000002 5405.000000000001 1874.9999999999984
    vertex 6075.000000000002 5330.000000000001 1624.9999999999986
    vertex 6075.000000000002 5405.000000000001 1624.9999999999986
  endloop
endfacet
facet normal -3.7445602002945327e-31 -0.7071067811865489 -0.7071067811865462
  outer loop
    vertex 1425.0000000000034 5230.000000000001 1724.9999999999986
    vertex 925.0000000000026 5330.000000000001 1624.9999999999986
    vertex 1425.000000000003 5330.000000000001 1624.9999999999986
  endloop
endfacet
facet normal -3.7445602002945327e-31 -0.7071067811865489 -0.7071067811865462
  outer loop
    vertex 925.0000000000026 5330.000000000001 1624.9999999999986
    vertex 1425.0000000000034 5230.000000000001 1724.9999999999986
    vertex 925.0000000000026 5230.000000000001 1724.9999999999986
  endloop
endfacet
facet normal -4.3745973133599804e-30 -0.7071067811865513 -0.7071067811865438
  outer loop
    vertex 6075.000000000002 5230.000000000002 1724.9999999999986
    vertex 5575.000000000001 5330.000000000001 1624.9999999999986
    vertex 6075.000000000002 5330.000000000001 1624.9999999999986
  endloop
endfacet
facet normal -4.3745973133599804e-30 -0.7071067811865513 -0.7071067811865438
  outer loop
    vertex 5575.000000000001 5330.000000000001 1624.9999999999986
    vertex 6075.000000000002 5230.000000000002 1724.9999999999986
    vertex 5575.000000000002 5230.000000000002 1724.9999999999986
  endloop
endfacet
facet normal -6.4829494441246694e-18 -0.7071067811865488 -0.7071067811865462
  outer loop
    vertex 3750.0000000000027 5230.000000000001 1724.9999999999986
    vertex 3250.0000000000023 5330.000000000001 1624.9999999999986
    vertex 3750.0000000000027 5330.000000000001 1624.9999999999986
  endloop
endfacet
facet normal -6.4829494441246694e-18 -0.7071067811865488 -0.7071067811865462
  outer loop
    vertex 3250.0000000000023 5330.000000000001 1624.9999999999986
    vertex 3750.0000000000027 5230.000000000001 1724.9999999999986
    vertex 3250.0000000000027 5230.000000000001 1724.9999999999986
  endloop
endfacet
facet normal -5.41433564649196e-16 4.7494172337648776e-15 -1.0
  outer loop
    vertex 6075.000000000002 5720.000000000002 1624.9999999999989
    vertex 5575.000000000001 5645.000000000001 1624.9999999999989
    vertex 5575.000000000001 5720.000000000002 1624.9999999999993
  endloop
endfacet
facet normal -5.41433564649196e-16 4.7494172337648776e-15 -1.0
  outer loop
    vertex 5575.000000000001 5645.000000000001 1624.9999999999989
    vertex 6075.000000000002 5720.000000000002 1624.9999999999989
    vertex 6075.000000000002 5645.000000000001 1624.9999999999986
  endloop
endfacet
facet normal -1.0 0.0 0.0
  outer loop
    vertex 5575.000000000001 5800.000000000002 1874.9999999999984
    vertex 5575.000000000001 5645.000000000001 1624.9999999999989
    vertex 5575.000000000001 5645.000000000001 1874.9999999999984
  endloop
endfacet
facet normal -1.0 0.0 0.0
  outer loop
    vertex 5575.000000000001 5645.000000000001 1624.9999999999989
    vertex 5575.000000000001 5800.000000000002 1874.9999999999984
    vertex 5575.000000000001 5720.000000000002 1624.9999999999993
  endloop
endfacet
facet normal -1.0 0.0 0.0
  outer loop
    vertex 5575.000000000001 5720.000000000002 1624.9999999999993
    vertex 5575.000000000001 5800.000000000002 1874.9999999999984
    vertex 5575.000000000001 5820.000000000002 1724.9999999999986
  endloop
endfacet
facet normal -1.0 0.0 0.0
  outer loop
    vertex 5575.000000000001 5820.000000000002 1724.9999999999986
    vertex 5575.000000000001 5800.000000000002 1874.9999999999984
    vertex 5575.000000000001 5820.000000000002 1874.999999999998
  endloop
endfacet
facet normal 0.0 1.0 0.0
  outer loop
    vertex 5575.000000000001 5820.000000000002 1874.999999999998
    vertex 6075.000000000002 5820.000000000002 1724.9999999999986
    vertex 5575.000000000001 5820.000000000002 1724.9999999999986
  endloop
endfacet
facet normal 0.0 1.0 0.0
  outer loop
    vertex 6075.000000000002 5820.000000000002 1724.9999999999986
    vertex 5575.000000000001 5820.000000000002 1874.999999999998
    vertex 6075.000000000002 5820.000000000002 1874.9999999999989
  endloop
endfacet
facet normal 0.0 -1.0 0.0
  outer loop
    vertex 3750.0000000000027 5645.000000000001 1624.9999999999989
    vertex 3250.0000000000014 5645.000000000001 1874.999999999998
    vertex 3250.0000000000014 5645.000000000001 1624.9999999999989
  endloop
endfacet
facet normal 0.0 -1.0 0.0
  outer loop
    vertex 3250.0000000000014 5645.000000000001 1874.999999999998
    vertex 3750.0000000000027 5645.000000000001 1624.9999999999989
    vertex 3750.0000000000027 5645.000000000001 1874.9999999999984
  endloop
endfacet
facet normal 1.0 0.0 0.0
  outer loop
    vertex 3750.0000000000027 5330.000000000001 1624.9999999999986
    vertex 3750.0000000000027 5230.000000000001 1874.9999999999984
    vertex 3750.0000000000027 5230.000000000001 1724.9999999999986
  endloop
endfacet
facet normal 1.0 0.0 0.0
  outer loop
    vertex 3750.0000000000027 5230.000000000001 1874.9999999999984
    vertex 3750.0000000000027 5330.000000000001 1624.9999999999986
    vertex 3750.0000000000027 5250.000000000002 1874.999999999998
  endloop
endfacet
facet normal 1.0 0.0 0.0
  outer loop
    vertex 3750.0000000000027 5250.000000000002 1874.999999999998
    vertex 3750.0000000000027 5330.000000000001 1624.9999999999986
    vertex 3750.0000000000027 5405.000000000001 1874.9999999999984
  endloop
endfacet
facet normal 1.0 0.0 0.0
  outer loop
    vertex 3750.0000000000027 5405.000000000001 1874.9999999999984
    vertex 3750.0000000000027 5330.000000000001 1624.9999999999986
    vertex 3750.0000000000027 5405.000000000001 1624.9999999999986
  endloop
endfacet
facet normal -1.0 -1.7739675337704358e-15 -8.159745970412584e-16
  outer loop
    vertex 5575.000000000001 5250.000000000002 1874.999999999998
    vertex 5575.000000000002 5230.000000000002 1724.9999999999986
    vertex 5575.000000000001 5230.000000000002 1874.9999999999984
  endloop
endfacet
facet normal -1.0 -1.7739675337704358e-15 -8.159745970412584e-16
  outer loop
    vertex 5575.000000000002 5230.000000000002 1724.9999999999986
    vertex 5575.000000000001 5250.000000000002 1874.999999999998
    vertex 5575.000000000001 5330.000000000001 1624.9999999999986
  endloop
endfacet
facet normal -1.0 -1.7739675337704358e-15 -8.159745970412584e-16
  outer loop
    vertex 5575.000000000001 5330.000000000001 1624.9999999999986
    vertex 5575.000000000001 5250.000000000002 1874.999999999998
    vertex 5575.000000000001 5405.000000000001 1874.9999999999984
  endloop
endfacet
facet normal -1.0 -1.7739675337704358e-15 -8.159745970412584e-16
  outer loop
    vertex 5575.000000000001 5330.000000000001 1624.9999999999986
    vertex 5575.000000000001 5405.000000000001 1874.9999999999984
    vertex 5575.000000000001 5405.000000000001 1624.9999999999986
  endloop
endfacet
facet normal 0.0 -1.0 0.0
  outer loop
    vertex 3750.0000000000027 5230.000000000001 1874.9999999999984
    vertex 3250.0000000000027 5230.000000000001 1724.9999999999986
    vertex 3750.0000000000027 5230.000000000001 1724.9999999999986
  endloop
endfacet
facet normal 0.0 -1.0 0.0
  outer loop
    vertex 3250.0000000000027 5230.000000000001 1724.9999999999986
    vertex 3750.0000000000027 5230.000000000001 1874.9999999999984
    vertex 3250.0000000000027 5230.000000000001 1874.999999999998
  endloop
endfacet
facet normal 0.0 1.0 0.0
  outer loop
    vertex 5575.000000000001 5405.000000000001 1874.9999999999984
    vertex 6075.000000000002 5405.000000000001 1624.9999999999986
    vertex 5575.000000000001 5405.000000000001 1624.9999999999986
  endloop
endfacet
facet normal 0.0 1.0 0.0
  outer loop
    vertex 6075.000000000002 5405.000000000001 1624.9999999999986
    vertex 5575.000000000001 5405.000000000001 1874.9999999999984
    vertex 6075.000000000002 5405.000000000001 1874.9999999999984
  endloop
endfacet
facet normal 1.0 2.9737297868730697e-15 -4.37460898512723e-16
  outer loop
    vertex 1425.000000000003 5330.000000000001 1624.9999999999986
    vertex 1425.0000000000034 5230.000000000001 1874.999999999998
    vertex 1425.0000000000034 5230.000000000001 1724.9999999999986
  endloop
endfacet
facet normal 1.0 2.9737297868730697e-15 -4.37460898512723e-16
  outer loop
    vertex 1425.0000000000034 5230.000000000001 1874.999999999998
    vertex 1425.000000000003 5330.000000000001 1624.9999999999986
    vertex 1425.0000000000034 5250.000000000002 1874.9999999999973
  endloop
endfacet
facet normal 1.0 2.9737297868730697e-15 -4.37460898512723e-16
  outer loop
    vertex 1425.0000000000034 5250.000000000002 1874.9999999999973
    vertex 1425.000000000003 5330.000000000001 1624.9999999999986
    vertex 1425.0000000000027 5405.000000000001 1874.999999999998
  endloop
endfacet
facet normal 1.0 2.9737297868730697e-15 -4.37460898512723e-16
  outer loop
    vertex 1425.0000000000027 5405.000000000001 1874.999999999998
    vertex 1425.000000000003 5330.000000000001 1624.9999999999986
    vertex 1425.0000000000027 5405.000000000001 1624.9999999999986
  endloop
endfacet
facet normal -1.0 -1.8673342460741033e-16 1.1258511449032972e-15
  outer loop
    vertex 3250.000000000003 5250.000000000002 1874.9999999999977
    vertex 3250.0000000000027 5230.000000000001 1724.9999999999986
    vertex 3250.0000000000027 5230.000000000001 1874.999999999998
  endloop
endfacet
facet normal -1.0 -1.8673342460741033e-16 1.1258511449032972e-15
  outer loop
    vertex 3250.0000000000027 5230.000000000001 1724.9999999999986
    vertex 3250.000000000003 5250.000000000002 1874.9999999999977
    vertex 3250.0000000000023 5330.000000000001 1624.9999999999986
  endloop
endfacet
facet normal -1.0 -1.8673342460741033e-16 1.1258511449032972e-15
  outer loop
    vertex 3250.0000000000023 5330.000000000001 1624.9999999999986
    vertex 3250.000000000003 5250.000000000002 1874.9999999999977
    vertex 3250.0000000000027 5405.000000000001 1874.999999999998
  endloop
endfacet
facet normal -1.0 -1.8673342460741033e-16 1.1258511449032972e-15
  outer loop
    vertex 3250.0000000000023 5330.000000000001 1624.9999999999986
    vertex 3250.0000000000027 5405.000000000001 1874.999999999998
    vertex 3250.0000000000027 5405.000000000001 1624.9999999999986
  endloop
endfacet
facet normal 0.0 -1.0 0.0
  outer loop
    vertex 1425.0000000000034 5230.000000000001 1874.999999999998
    vertex 925.0000000000026 5230.000000000001 1724.9999999999986
    vertex 1425.0000000000034 5230.000000000001 1724.9999999999986
  endloop
endfacet
facet normal 0.0 -1.0 0.0
  outer loop
    vertex 925.0000000000026 5230.000000000001 1724.9999999999986
    vertex 1425.0000000000034 5230.000000000001 1874.999999999998
    vertex 925.0000000000026 5230.000000000001 1874.9999999999989
  endloop
endfacet
facet normal 0.0 1.0 0.0
  outer loop
    vertex 3250.0000000000027 5405.000000000001 1874.999999999998
    vertex 3750.0000000000027 5405.000000000001 1624.9999999999986
    vertex 3250.0000000000027 5405.000000000001 1624.9999999999986
  endloop
endfacet
facet normal 0.0 1.0 0.0
  outer loop
    vertex 3750.0000000000027 5405.000000000001 1624.9999999999986
    vertex 3250.0000000000027 5405.000000000001 1874.999999999998
    vertex 3750.0000000000027 5405.000000000001 1874.9999999999984
  endloop
endfacet
facet normal 1.0 6.255569724348408e-16 5.9552821901814926e-18
  outer loop
    vertex 1425.0000000000032 5720.000000000002 1624.9999999999986
    vertex 1425.0000000000032 5645.000000000001 1874.9999999999984
    vertex 1425.0000000000032 5645.000000000001 1624.9999999999989
  endloop
endfacet
facet normal 1.0 6.255569724348408e-16 5.9552821901814926e-18
  outer loop
    vertex 1425.0000000000032 5645.000000000001 1874.9999999999984
    vertex 1425.0000000000032 5720.000000000002 1624.9999999999986
    vertex 1425.000000000003 5800.000000000002 1874.9999999999989
  endloop
endfacet
facet normal 1.0 6.255569724348408e-16 5.9552821901814926e-18
  outer loop
    vertex 1425.000000000003 5800.000000000002 1874.9999999999989
    vertex 1425.0000000000032 5720.000000000002 1624.9999999999986
    vertex 1425.000000000003 5820.0 1724.9999999999982
  endloop
endfacet
facet normal 1.0 6.255569724348408e-16 5.9552821901814926e-18
  outer loop
    vertex 1425.000000000003 5800.000000000002 1874.9999999999989
    vertex 1425.000000000003 5820.0 1724.9999999999982
    vertex 1425.0000000000032 5820.0 1874.9999999999984
  endloop
endfacet
facet normal -1.0 5.947459573746137e-15 8.749217970254372e-16
  outer loop
    vertex 3250.000000000003 5800.000000000002 1874.9999999999989
    vertex 3250.0000000000014 5645.000000000001 1624.9999999999989
    vertex 3250.0000000000014 5645.000000000001 1874.999999999998
  endloop
endfacet
facet normal -1.0 5.947459573746137e-15 8.749217970254372e-16
  outer loop
    vertex 3250.0000000000014 5645.000000000001 1624.9999999999989
    vertex 3250.000000000003 5800.000000000002 1874.9999999999989
    vertex 3250.000000000002 5720.000000000002 1624.9999999999989
  endloop
endfacet
facet normal -1.0 5.947459573746137e-15 8.749217970254372e-16
  outer loop
    vertex 3250.000000000002 5720.000000000002 1624.9999999999989
    vertex 3250.000000000003 5800.000000000002 1874.9999999999989
    vertex 3250.0000000000027 5820.000000000001 1724.9999999999989
  endloop
endfacet
facet normal -1.0 5.947459573746137e-15 8.749217970254372e-16
  outer loop
    vertex 3250.0000000000027 5820.000000000001 1724.9999999999989
    vertex 3250.000000000003 5800.000000000002 1874.9999999999989
    vertex 3250.0000000000027 5820.000000000001 1874.9999999999984
  endloop
endfacet
facet normal 3.609557097661302e-16 -7.3337201553121685e-31 -1.0
  outer loop
    vertex 3250.000000000002 5720.000000000002 1624.9999999999989
    vertex 3750.0000000000027 5645.000000000001 1624.9999999999989
    vertex 3250.0000000000014 5645.000000000001 1624.9999999999989
  endloop
endfacet
facet normal 3.609557097661302e-16 -7.3337201553121685e-31 -1.0
  outer loop
    vertex 3750.0000000000027 5645.000000000001 1624.9999999999989
    vertex 3250.000000000002 5720.000000000002 1624.9999999999989
    vertex 3750.0000000000027 5720.000000000002 1624.9999999999989
  endloop
endfacet
facet normal -2.5283502832084837e-16 0.7071067811865444 -0.7071067811865508
  outer loop
    vertex 6075.000000000002 5820.000000000002 1724.9999999999986
    vertex 5575.000000000001 5720.000000000002 1624.9999999999993
    vertex 5575.000000000001 5820.000000000002 1724.9999999999986
  endloop
endfacet
facet normal -2.5283502832084837e-16 0.7071067811865444 -0.7071067811865508
  outer loop
    vertex 5575.000000000001 5720.000000000002 1624.9999999999993
    vertex 6075.000000000002 5820.000000000002 1724.9999999999986
    vertex 6075.000000000002 5720.000000000002 1624.9999999999989
  endloop
endfacet
facet normal 1.2965898888248535e-16 0.7071067811865491 -0.7071067811865459
  outer loop
    vertex 3250.0000000000027 5820.000000000001 1724.9999999999989
    vertex 3750.0000000000027 5720.000000000002 1624.9999999999989
    vertex 3250.000000000002 5720.000000000002 1624.9999999999989
  endloop
endfacet
facet normal 1.2965898888248535e-16 0.7071067811865491 -0.7071067811865459
  outer loop
    vertex 3750.0000000000027 5720.000000000002 1624.9999999999989
    vertex 3250.0000000000027 5820.000000000001 1724.9999999999989
    vertex 3750.0000000000027 5820.000000000001 1724.9999999999989
  endloop
endfacet
facet normal 0.0 1.0 0.0
  outer loop
    vertex 3250.0000000000027 5820.000000000001 1874.9999999999984
    vertex 3750.0000000000027 5820.000000000001 1724.9999999999989
    vertex 3250.0000000000027 5820.000000000001 1724.9999999999989
  endloop
endfacet
facet normal 0.0 1.0 0.0
  outer loop
    vertex 3750.0000000000027 5820.000000000001 1724.9999999999989
    vertex 3250.0000000000027 5820.000000000001 1874.9999999999984
    vertex 3750.0000000000027 5820.000000000001 1874.9999999999989
  endloop
endfacet
facet normal 1.0 0.0 0.0
  outer loop
    vertex 3750.0000000000027 5720.000000000002 1624.9999999999989
    vertex 3750.0000000000027 5645.000000000001 1874.9999999999984
    vertex 3750.0000000000027 5645.000000000001 1624.9999999999989
  endloop
endfacet
facet normal 1.0 0.0 0.0
  outer loop
    vertex 3750.0000000000027 5645.000000000001 1874.9999999999984
    vertex 3750.0000000000027 5720.000000000002 1624.9999999999989
    vertex 3750.0000000000027 5800.000000000002 1874.9999999999989
  endloop
endfacet
facet normal 1.0 0.0 0.0
  outer loop
    vertex 3750.0000000000027 5800.000000000002 1874.9999999999989
    vertex 3750.0000000000027 5720.000000000002 1624.9999999999989
    vertex 3750.0000000000027 5820.000000000001 1724.9999999999989
  endloop
endfacet
facet normal 1.0 0.0 0.0
  outer loop
    vertex 3750.0000000000027 5800.000000000002 1874.9999999999989
    vertex 3750.0000000000027 5820.000000000001 1724.9999999999989
    vertex 3750.0000000000027 5820.000000000001 1874.9999999999989
  endloop
endfacet
facet normal 1.2965898888248592e-16 0.7071067811865505 -0.7071067811865447
  outer loop
    vertex 925.0000000000024 5820.0 1724.9999999999982
    vertex 1425.0000000000032 5720.000000000002 1624.9999999999986
    vertex 925.0000000000026 5720.000000000002 1624.9999999999984
  endloop
endfacet
facet normal 1.2965898888248592e-16 0.7071067811865505 -0.7071067811865447
  outer loop
    vertex 1425.0000000000032 5720.000000000002 1624.9999999999986
    vertex 925.0000000000024 5820.0 1724.9999999999982
    vertex 1425.000000000003 5820.0 1724.9999999999982
  endloop
endfacet
facet normal -1.804778548830653e-16 9.49883446752975e-16 -1.0
  outer loop
    vertex 1425.0000000000027 5405.000000000001 1624.9999999999986
    vertex 925.0000000000026 5330.000000000001 1624.9999999999986
    vertex 925.0000000000026 5405.000000000001 1624.9999999999989
  endloop
endfacet
facet normal -1.804778548830653e-16 9.49883446752975e-16 -1.0
  outer loop
    vertex 925.0000000000026 5330.000000000001 1624.9999999999986
    vertex 1425.0000000000027 5405.000000000001 1624.9999999999986
    vertex 1425.000000000003 5330.000000000001 1624.9999999999986
  endloop
endfacet
facet normal 0.0 0.0 -1.0
  outer loop
    vertex 3250.0000000000027 5405.000000000001 1624.9999999999986
    vertex 3750.0000000000027 5330.000000000001 1624.9999999999986
    vertex 3250.0000000000023 5330.000000000001 1624.9999999999986
  endloop
endfacet
facet normal 0.0 0.0 -1.0
  outer loop
    vertex 3750.0000000000027 5330.000000000001 1624.9999999999986
    vertex 3250.0000000000027 5405.000000000001 1624.9999999999986
    vertex 3750.0000000000027 5405.000000000001 1624.9999999999986
  endloop
endfacet
facet normal 0.0 0.0 -1.0
  outer loop
    vertex 6075.000000000002 5405.000000000001 1624.9999999999986
    vertex 5575.000000000001 5330.000000000001 1624.9999999999986
    vertex 5575.000000000001 5405.000000000001 1624.9999999999986
  endloop
endfacet
facet normal 0.0 0.0 -1.0
  outer loop
    vertex 5575.000000000001 5330.000000000001 1624.9999999999986
    vertex 6075.000000000002 5405.000000000001 1624.9999999999986
    vertex 6075.000000000002 5330.000000000001 1624.9999999999986
  endloop
endfacet
facet normal 3.6095570976613063e-16 1.0313020279032273e-15 -1.0
  outer loop
    vertex 6075.000000000002 5800.000000000002 1874.9999999999989
    vertex 5575.000000000001 5645.000000000001 1874.9999999999984
    vertex 5575.000000000001 5800.000000000002 1874.9999999999984
  endloop
endfacet
facet normal 3.6095570976613063e-16 1.0313020279032273e-15 -1.0
  outer loop
    vertex 5575.000000000001 5645.000000000001 1874.9999999999984
    vertex 6075.000000000002 5800.000000000002 1874.9999999999989
    vertex 6075.000000000002 5645.000000000001 1874.9999999999984
  endloop
endfacet
facet normal 3.6095570976613113e-16 -9.023892744153692e-15 -1.0
  outer loop
    vertex 3750.0000000000027 5820.000000000001 1874.9999999999989
    vertex 3250.000000000003 5800.000000000002 1874.9999999999989
    vertex 3250.0000000000027 5820.000000000001 1874.9999999999984
  endloop
endfacet
facet normal 3.6095570976613113e-16 -9.023892744153692e-15 -1.0
  outer loop
    vertex 3250.000000000003 5800.000000000002 1874.9999999999989
    vertex 3750.0000000000027 5820.000000000001 1874.9999999999989
    vertex 3750.0000000000027 5800.000000000002 1874.9999999999989
  endloop
endfacet
facet normal 3.6095570976613113e-16 3.0939060837096805e-15 -1.0
  outer loop
    vertex 3250.000000000003 5800.000000000002 1874.9999999999989
    vertex 3750.0000000000027 5645.000000000001 1874.9999999999984
    vertex 3250.0000000000014 5645.000000000001 1874.999999999998
  endloop
endfacet
facet normal 3.6095570976613113e-16 3.0939060837096805e-15 -1.0
  outer loop
    vertex 3750.0000000000027 5645.000000000001 1874.9999999999984
    vertex 3250.000000000003 5800.000000000002 1874.9999999999989
    vertex 3750.0000000000027 5800.000000000002 1874.9999999999989
  endloop
endfacet
facet normal 1.082867129298392e-15 -9.02389274415337e-15 -1.0
  outer loop
    vertex 6075.000000000002 5820.000000000002 1874.9999999999989
    vertex 5575.000000000001 5800.000000000002 1874.9999999999984
    vertex 5575.000000000001 5820.000000000002 1874.999999999998
  endloop
endfacet
facet normal 1.082867129298392e-15 -9.02389274415337e-15 -1.0
  outer loop
    vertex 5575.000000000001 5800.000000000002 1874.9999999999984
    vertex 6075.000000000002 5820.000000000002 1874.9999999999989
    vertex 6075.000000000002 5800.000000000002 1874.9999999999989
  endloop
endfacet
facet normal -7.219114195322612e-16 2.0626040558064546e-15 -1.0
  outer loop
    vertex 1425.000000000003 5800.000000000002 1874.9999999999989
    vertex 925.0000000000026 5645.000000000001 1874.9999999999989
    vertex 925.0000000000026 5800.000000000002 1874.999999999999
  endloop
endfacet
facet normal -7.219114195322612e-16 2.0626040558064546e-15 -1.0
  outer loop
    vertex 925.0000000000026 5645.000000000001 1874.9999999999989
    vertex 1425.000000000003 5800.000000000002 1874.9999999999989
    vertex 1425.0000000000032 5645.000000000001 1874.9999999999984
  endloop
endfacet
facet normal -3.6095570976613063e-16 3.093906083709708e-15 -1.0
  outer loop
    vertex 6075.000000000002 5405.000000000001 1874.9999999999984
    vertex 5575.000000000001 5250.000000000002 1874.999999999998
    vertex 5575.000000000001 5405.000000000001 1874.9999999999984
  endloop
endfacet
facet normal -3.6095570976613063e-16 3.093906083709708e-15 -1.0
  outer loop
    vertex 5575.000000000001 5250.000000000002 1874.999999999998
    vertex 6075.000000000002 5405.000000000001 1874.9999999999984
    vertex 6075.000000000002 5250.000000000002 1874.9999999999977
  endloop
endfacet
facet normal 4.136676525135627e-32 -3.609557097661348e-14 -1.0
  outer loop
    vertex 6075.000000000002 5250.000000000002 1874.9999999999977
    vertex 5575.000000000001 5230.000000000002 1874.9999999999984
    vertex 5575.000000000001 5250.000000000002 1874.999999999998
  endloop
endfacet
facet normal 4.136676525135627e-32 -3.609557097661348e-14 -1.0
  outer loop
    vertex 5575.000000000001 5230.000000000002 1874.9999999999984
    vertex 6075.000000000002 5250.000000000002 1874.9999999999977
    vertex 6075.000000000002 5230.000000000002 1874.9999999999989
  endloop
endfacet
facet normal 7.219114195322621e-16 2.0626040558064727e-15 -1.0
  outer loop
    vertex 3750.0000000000027 5405.000000000001 1874.9999999999984
    vertex 3250.000000000003 5250.000000000002 1874.9999999999977
    vertex 3250.0000000000027 5405.000000000001 1874.999999999998
  endloop
endfacet
facet normal 7.219114195322621e-16 2.0626040558064727e-15 -1.0
  outer loop
    vertex 3250.000000000003 5250.000000000002 1874.9999999999977
    vertex 3750.0000000000027 5405.000000000001 1874.9999999999984
    vertex 3750.0000000000027 5250.000000000002 1874.999999999998
  endloop
endfacet
facet normal 7.219114195322621e-16 -1.8047785488306094e-14 -1.0
  outer loop
    vertex 3250.000000000003 5250.000000000002 1874.9999999999977
    vertex 3750.0000000000027 5230.000000000001 1874.9999999999984
    vertex 3250.0000000000027 5230.000000000001 1874.999999999998
  endloop
endfacet
facet normal 7.219114195322621e-16 -1.8047785488306094e-14 -1.0
  outer loop
    vertex 3750.0000000000027 5230.000000000001 1874.9999999999984
    vertex 3250.000000000003 5250.000000000002 1874.9999999999977
    vertex 3750.0000000000027 5250.000000000002 1874.999999999998
  endloop
endfacet
facet normal 4.327084627925992e-31 6.187812167419416e-15 -1.0
  outer loop
    vertex 1425.0000000000027 5405.000000000001 1874.999999999998
    vertex 925.0000000000026 5250.000000000002 1874.999999999997
    vertex 925.0000000000026 5405.000000000001 1874.9999999999984
  endloop
endfacet
facet normal 4.327084627925992e-31 6.187812167419416e-15 -1.0
  outer loop
    vertex 925.0000000000026 5250.000000000002 1874.999999999997
    vertex 1425.0000000000027 5405.000000000001 1874.999999999998
    vertex 1425.0000000000034 5250.000000000002 1874.9999999999973
  endloop
endfacet
facet normal -3.609557097661302e-16 -6.316724920907131e-14 -1.0
  outer loop
    vertex 1425.0000000000034 5250.000000000002 1874.9999999999973
    vertex 925.0000000000026 5230.000000000001 1874.9999999999989
    vertex 925.0000000000026 5250.000000000002 1874.999999999997
  endloop
endfacet
facet normal -3.609557097661302e-16 -6.316724920907131e-14 -1.0
  outer loop
    vertex 925.0000000000026 5230.000000000001 1874.9999999999989
    vertex 1425.0000000000034 5250.000000000002 1874.9999999999973
    vertex 1425.0000000000034 5230.000000000001 1874.999999999998
  endloop
endfacet
facet normal -7.219114195322611e-16 -1.8047785488308037e-14 -1.0
  outer loop
    vertex 1425.0000000000032 5820.0 1874.9999999999984
    vertex 925.0000000000026 5800.000000000002 1874.999999999999
    vertex 925.0000000000026 5820.0 1874.9999999999989
  endloop
endfacet
facet normal -7.219114195322611e-16 -1.8047785488308037e-14 -1.0
  outer loop
    vertex 925.0000000000026 5800.000000000002 1874.999999999999
    vertex 1425.0000000000032 5820.0 1874.9999999999984
    vertex 1425.000000000003 5800.000000000002 1874.9999999999989
  endloop
endfacet
facet normal 0.0 -1.0 0.0
  outer loop
    vertex 1425.0000000000032 5645.000000000001 1874.9999999999984
    vertex 925.0000000000026 5645.000000000001 1624.9999999999989
    vertex 1425.0000000000032 5645.000000000001 1624.9999999999989
  endloop
endfacet
facet normal 0.0 -1.0 0.0
  outer loop
    vertex 925.0000000000026 5645.000000000001 1624.9999999999989
    vertex 1425.0000000000032 5645.000000000001 1874.9999999999984
    vertex 925.0000000000026 5645.000000000001 1874.9999999999989
  endloop
endfacet
facet normal 1.8047785488306527e-16 -4.749417233764877e-15 -1.0
  outer loop
    vertex 1425.0000000000032 5720.000000000002 1624.9999999999986
    vertex 925.0000000000026 5645.000000000001 1624.9999999999989
    vertex 925.0000000000026 5720.000000000002 1624.9999999999984
  endloop
endfacet
facet normal 1.8047785488306527e-16 -4.749417233764877e-15 -1.0
  outer loop
    vertex 925.0000000000026 5645.000000000001 1624.9999999999989
    vertex 1425.0000000000032 5720.000000000002 1624.9999999999986
    vertex 1425.0000000000032 5645.000000000001 1624.9999999999989
  endloop
endfacet
facet normal -1.8154519241430453e-16 1.879426180213794e-15 -1.0
  outer loop
    vertex 1465.0000000000032 5605.000000000002 1724.9999999999989
    vertex 925.0000000000026 5445.0 1724.9999999999982
    vertex 925.0000000000026 5605.000000000002 1724.9999999999989
  endloop
endfacet
facet normal -1.8154519241430453e-16 1.879426180213794e-15 -1.0
  outer loop
    vertex 925.0000000000026 5445.0 1724.9999999999982
    vertex 1465.0000000000032 5605.000000000002 1724.9999999999989
    vertex 1465.000000000003 5445.0 1724.9999999999982
  endloop
endfacet
facet normal -1.8154519241430453e-16 1.879426180213794e-15 -1.0
  outer loop
    vertex 1465.000000000003 5445.0 1724.9999999999982
    vertex 1465.0000000000032 5605.000000000002 1724.9999999999989
    vertex 1465.0000000000032 5250.000000000002 1724.9999999999975
  endloop
endfacet
facet normal -1.8154519241430453e-16 1.879426180213794e-15 -1.0
  outer loop
    vertex 1465.0000000000032 5250.000000000002 1724.9999999999975
    vertex 1465.0000000000032 5605.000000000002 1724.9999999999989
    vertex 1465.0000000000034 5800.000000000002 1724.9999999999982
  endloop
endfacet
facet normal -1.8154519241430453e-16 1.879426180213794e-15 -1.0
  outer loop
    vertex 1465.0000000000032 5250.000000000002 1724.9999999999975
    vertex 1465.0000000000034 5800.000000000002 1724.9999999999982
    vertex 3209.999999999999 5250.000000000002 1724.9999999999968
  endloop
endfacet
facet normal -1.8154519241430453e-16 1.879426180213794e-15 -1.0
  outer loop
    vertex 3209.999999999999 5250.000000000002 1724.9999999999968
    vertex 1465.0000000000034 5800.000000000002 1724.9999999999982
    vertex 3210.000000000001 5605.000000000002 1724.9999999999975
  endloop
endfacet
facet normal -1.8154519241430453e-16 1.879426180213794e-15 -1.0
  outer loop
    vertex 3210.000000000001 5605.000000000002 1724.9999999999975
    vertex 1465.0000000000034 5800.000000000002 1724.9999999999982
    vertex 3210.0000000000027 5800.000000000002 1724.9999999999989
  endloop
endfacet
facet normal -1.8154519241430453e-16 1.879426180213794e-15 -1.0
  outer loop
    vertex 3209.999999999999 5250.000000000002 1724.9999999999968
    vertex 3210.000000000001 5605.000000000002 1724.9999999999975
    vertex 3210.0000000000005 5445.0 1724.9999999999968
  endloop
endfacet
facet normal -1.8154519241430453e-16 1.879426180213794e-15 -1.0
  outer loop
    vertex 6075.000000000002 5605.000000000002 1724.9999999999982
    vertex 5535.000000000002 5445.0 1724.9999999999961
    vertex 5535.000000000002 5605.000000000002 1724.9999999999968
  endloop
endfacet
facet normal -1.8154519241430453e-16 1.879426180213794e-15 -1.0
  outer loop
    vertex 5535.000000000002 5445.0 1724.9999999999961
    vertex 6075.000000000002 5605.000000000002 1724.9999999999982
    vertex 6075.000000000002 5445.0 1724.9999999999968
  endloop
endfacet
facet normal -1.8154519241430453e-16 1.879426180213794e-15 -1.0
  outer loop
    vertex 5535.000000000002 5800.000000000002 1724.9999999999982
    vertex 3790.0000000000023 5605.000000000002 1724.9999999999968
    vertex 3790.0000000000023 5800.000000000002 1724.9999999999982
  endloop
endfacet
facet normal -1.8154519241430453e-16 1.879426180213794e-15 -1.0
  outer loop
    vertex 3790.0000000000023 5605.000000000002 1724.9999999999968
    vertex 5535.000000000002 5800.000000000002 1724.9999999999982
    vertex 3790.0000000000023 5445.0 1724.9999999999968
  endloop
endfacet
facet normal -1.8154519241430453e-16 1.879426180213794e-15 -1.0
  outer loop
    vertex 3790.0000000000023 5445.0 1724.9999999999968
    vertex 5535.000000000002 5800.000000000002 1724.9999999999982
    vertex 3790.0000000000023 5250.000000000002 1724.9999999999975
  endloop
endfacet
facet normal -1.8154519241430453e-16 1.879426180213794e-15 -1.0
  outer loop
    vertex 3790.0000000000023 5250.000000000002 1724.9999999999975
    vertex 5535.000000000002 5800.000000000002 1724.9999999999982
    vertex 5535.000000000002 5250.000000000002 1724.9999999999982
  endloop
endfacet
facet normal -1.8154519241430453e-16 1.879426180213794e-15 -1.0
  outer loop
    vertex 5535.000000000002 5250.000000000002 1724.9999999999982
    vertex 5535.000000000002 5800.000000000002 1724.9999999999982
    vertex 5535.000000000002 5605.000000000002 1724.9999999999968
  endloop
endfacet
facet normal -1.8154519241430453e-16 1.879426180213794e-15 -1.0
  outer loop
    vertex 5535.000000000002 5250.000000000002 1724.9999999999982
    vertex 5535.000000000002 5605.000000000002 1724.9999999999968
    vertex 5535.000000000002 5445.0 1724.9999999999961
  endloop
endfacet
facet normal -1.8154519241430453e-16 1.879426180213794e-15 -1.0
  outer loop
    vertex 3210.000000000001 5605.000000000002 1724.9999999999975
    vertex 3790.0000000000023 5445.0 1724.9999999999968
    vertex 3210.0000000000005 5445.0 1724.9999999999968
  endloop
endfacet
facet normal -1.8154519241430453e-16 1.879426180213794e-15 -1.0
  outer loop
    vertex 3790.0000000000023 5445.0 1724.9999999999968
    vertex 3210.000000000001 5605.000000000002 1724.9999999999975
    vertex 3790.0000000000023 5605.000000000002 1724.9999999999968
  endloop
endfacet
facet normal 1.3045954054463808e-30 -1.0 -1.879426180213794e-15
  outer loop
    vertex 6075.000000000002 5445.0 1724.9999999999968
    vertex 5535.000000000002 5445.0 1874.9999999999964
    vertex 5535.000000000002 5445.0 1724.9999999999961
  endloop
endfacet
facet normal 1.3045954054463808e-30 -1.0 -1.879426180213794e-15
  outer loop
    vertex 5535.000000000002 5445.0 1874.9999999999964
    vertex 6075.000000000002 5445.0 1724.9999999999968
    vertex 6075.000000000002 5445.0 1874.9999999999966
  endloop
endfacet
facet normal 1.0 -2.0163007317702904e-30 -1.8154519241430453e-16
  outer loop
    vertex 5535.000000000002 5445.0 1724.9999999999961
    vertex 5535.000000000002 5250.000000000002 1874.9999999999984
    vertex 5535.000000000002 5250.000000000002 1724.9999999999982
  endloop
endfacet
facet normal 1.0 -2.0163007317702904e-30 -1.8154519241430453e-16
  outer loop
    vertex 5535.000000000002 5250.000000000002 1874.9999999999984
    vertex 5535.000000000002 5445.0 1724.9999999999961
    vertex 5535.000000000002 5445.0 1874.9999999999964
  endloop
endfacet
facet normal 1.1401506064405355e-30 -1.0 -1.8794261802137945e-15
  outer loop
    vertex 5535.000000000002 5250.000000000002 1724.9999999999982
    vertex 3790.0000000000023 5250.000000000002 1874.9999999999973
    vertex 3790.0000000000023 5250.000000000002 1724.9999999999975
  endloop
endfacet
facet normal 1.1401506064405355e-30 -1.0 -1.8794261802137945e-15
  outer loop
    vertex 3790.0000000000023 5250.000000000002 1874.9999999999973
    vertex 5535.000000000002 5250.000000000002 1724.9999999999982
    vertex 5535.000000000002 5250.000000000002 1874.9999999999984
  endloop
endfacet
facet normal -1.0 3.3605012196171507e-31 1.8154519241430453e-16
  outer loop
    vertex 3790.0000000000023 5445.0 1874.999999999997
    vertex 3790.0000000000023 5250.000000000002 1724.9999999999975
    vertex 3790.0000000000023 5250.000000000002 1874.9999999999973
  endloop
endfacet
facet normal -1.0 3.3605012196171507e-31 1.8154519241430453e-16
  outer loop
    vertex 3790.0000000000023 5250.000000000002 1724.9999999999975
    vertex 3790.0000000000023 5445.0 1874.999999999997
    vertex 3790.0000000000023 5445.0 1724.9999999999968
  endloop
endfacet
facet normal -0.0 -1.0 -1.879426180213794e-15
  outer loop
    vertex 3790.0000000000023 5445.0 1874.999999999997
    vertex 3210.0000000000005 5445.0 1724.9999999999968
    vertex 3790.0000000000023 5445.0 1724.9999999999968
  endloop
endfacet
facet normal -0.0 -1.0 -1.879426180213794e-15
  outer loop
    vertex 3210.0000000000005 5445.0 1724.9999999999968
    vertex 3790.0000000000023 5445.0 1874.999999999997
    vertex 3210.0000000000005 5445.0 1874.999999999997
  endloop
endfacet
facet normal 1.0 -7.404219687510416e-15 -1.8154519241431845e-16
  outer loop
    vertex 3210.0000000000005 5445.0 1724.9999999999968
    vertex 3209.999999999999 5250.000000000002 1874.9999999999966
    vertex 3209.999999999999 5250.000000000002 1724.9999999999968
  endloop
endfacet
facet normal 1.0 -7.404219687510416e-15 -1.8154519241431845e-16
  outer loop
    vertex 3209.999999999999 5250.000000000002 1874.9999999999966
    vertex 3210.0000000000005 5445.0 1724.9999999999968
    vertex 3210.0000000000005 5445.0 1874.999999999997
  endloop
endfacet
facet normal -7.601004042936922e-31 -1.0 -1.879426180213794e-15
  outer loop
    vertex 3209.999999999999 5250.000000000002 1874.9999999999966
    vertex 1465.0000000000032 5250.000000000002 1724.9999999999975
    vertex 3209.999999999999 5250.000000000002 1724.9999999999968
  endloop
endfacet
facet normal -7.601004042936922e-31 -1.0 -1.879426180213794e-15
  outer loop
    vertex 1465.0000000000032 5250.000000000002 1724.9999999999975
    vertex 3209.999999999999 5250.000000000002 1874.9999999999966
    vertex 1465.0000000000032 5250.000000000002 1874.9999999999973
  endloop
endfacet
facet normal -1.0 -9.255274609388026e-16 1.8154519241430278e-16
  outer loop
    vertex 1465.000000000003 5445.0 1874.999999999998
    vertex 1465.0000000000032 5250.000000000002 1724.9999999999975
    vertex 1465.0000000000032 5250.000000000002 1874.9999999999973
  endloop
endfacet
facet normal -1.0 -9.255274609388026e-16 1.8154519241430278e-16
  outer loop
    vertex 1465.0000000000032 5250.000000000002 1724.9999999999975
    vertex 1465.000000000003 5445.0 1874.999999999998
    vertex 1465.000000000003 5445.0 1724.9999999999982
  endloop
endfacet
facet normal -1.30459540544638e-30 -1.0 -1.879426180213794e-15
  outer loop
    vertex 1465.000000000003 5445.0 1874.999999999998
    vertex 925.0000000000026 5445.0 1724.9999999999982
    vertex 1465.000000000003 5445.0 1724.9999999999982
  endloop
endfacet
facet normal -1.30459540544638e-30 -1.0 -1.879426180213794e-15
  outer loop
    vertex 925.0000000000026 5445.0 1724.9999999999982
    vertex 1465.000000000003 5445.0 1874.999999999998
    vertex 925.0000000000026 5445.0 1874.9999999999984
  endloop
endfacet
facet normal -1.0 -4.095610861408352e-31 1.8154519241430455e-16
  outer loop
    vertex 925.0000000000026 5605.000000000002 1874.9999999999989
    vertex 925.0000000000026 5445.0 1724.9999999999982
    vertex 925.0000000000026 5445.0 1874.9999999999984
  endloop
endfacet
facet normal -1.0 -4.095610861408352e-31 1.8154519241430455e-16
  outer loop
    vertex 925.0000000000026 5445.0 1724.9999999999982
    vertex 925.0000000000026 5605.000000000002 1874.9999999999989
    vertex 925.0000000000026 5605.000000000002 1724.9999999999989
  endloop
endfacet
facet normal 0.0 1.0 1.879426180213794e-15
  outer loop
    vertex 925.0000000000026 5605.000000000002 1874.9999999999989
    vertex 1465.0000000000032 5605.000000000002 1724.9999999999989
    vertex 925.0000000000026 5605.000000000002 1724.9999999999989
  endloop
endfacet
facet normal 0.0 1.0 1.879426180213794e-15
  outer loop
    vertex 1465.0000000000032 5605.000000000002 1724.9999999999989
    vertex 925.0000000000026 5605.000000000002 1874.9999999999989
    vertex 1465.0000000000032 5605.000000000002 1874.9999999999989
  endloop
endfacet
facet normal -1.0 9.255274609387959e-16 1.815451924143063e-16
  outer loop
    vertex 1465.0000000000034 5800.000000000002 1874.999999999998
    vertex 1465.0000000000032 5605.000000000002 1724.9999999999989
    vertex 1465.0000000000032 5605.000000000002 1874.9999999999989
  endloop
endfacet
facet normal -1.0 9.255274609387959e-16 1.815451924143063e-16
  outer loop
    vertex 1465.0000000000032 5605.000000000002 1724.9999999999989
    vertex 1465.0000000000034 5800.000000000002 1874.999999999998
    vertex 1465.0000000000034 5800.000000000002 1724.9999999999982
  endloop
endfacet
facet normal -7.601004042936899e-31 1.0 1.879426180213794e-15
  outer loop
    vertex 1465.0000000000034 5800.000000000002 1874.999999999998
    vertex 3210.0000000000027 5800.000000000002 1724.9999999999989
    vertex 1465.0000000000034 5800.000000000002 1724.9999999999982
  endloop
endfacet
facet normal -7.601004042936899e-31 1.0 1.879426180213794e-15
  outer loop
    vertex 3210.0000000000027 5800.000000000002 1724.9999999999989
    vertex 1465.0000000000034 5800.000000000002 1874.999999999998
    vertex 3210.0000000000027 5800.000000000002 1874.9999999999989
  endloop
endfacet
facet normal 1.0 -9.255274609387951e-15 -1.8154519241432193e-16
  outer loop
    vertex 3210.0000000000027 5800.000000000002 1724.9999999999989
    vertex 3210.000000000001 5605.000000000002 1874.9999999999973
    vertex 3210.000000000001 5605.000000000002 1724.9999999999975
  endloop
endfacet
facet normal 1.0 -9.255274609387951e-15 -1.8154519241432193e-16
  outer loop
    vertex 3210.000000000001 5605.000000000002 1874.9999999999973
    vertex 3210.0000000000027 5800.000000000002 1724.9999999999989
    vertex 3210.0000000000027 5800.000000000002 1874.9999999999989
  endloop
endfacet
facet normal 1.2562770570965122e-30 1.0 1.8794261802137945e-15
  outer loop
    vertex 3210.000000000001 5605.000000000002 1724.9999999999975
    vertex 3790.0000000000023 5605.000000000002 1874.999999999997
    vertex 3790.0000000000023 5605.000000000002 1724.9999999999968
  endloop
endfacet
facet normal 1.2562770570965122e-30 1.0 1.8794261802137945e-15
  outer loop
    vertex 3790.0000000000023 5605.000000000002 1874.999999999997
    vertex 3210.000000000001 5605.000000000002 1724.9999999999975
    vertex 3210.000000000001 5605.000000000002 1874.9999999999973
  endloop
endfacet
facet normal -1.0 -1.0081503658851379e-30 1.8154519241430455e-16
  outer loop
    vertex 3790.0000000000023 5800.000000000002 1874.999999999998
    vertex 3790.0000000000023 5605.000000000002 1724.9999999999968
    vertex 3790.0000000000023 5605.000000000002 1874.999999999997
  endloop
endfacet
facet normal -1.0 -1.0081503658851379e-30 1.8154519241430455e-16
  outer loop
    vertex 3790.0000000000023 5605.000000000002 1724.9999999999968
    vertex 3790.0000000000023 5800.000000000002 1874.999999999998
    vertex 3790.0000000000023 5800.000000000002 1724.9999999999982
  endloop
endfacet
facet normal -3.800502021468452e-31 1.0 1.8794261802137945e-15
  outer loop
    vertex 3790.0000000000023 5800.000000000002 1874.999999999998
    vertex 5535.000000000002 5800.000000000002 1724.9999999999982
    vertex 3790.0000000000023 5800.000000000002 1724.9999999999982
  endloop
endfacet
facet normal -3.800502021468452e-31 1.0 1.8794261802137945e-15
  outer loop
    vertex 5535.000000000002 5800.000000000002 1724.9999999999982
    vertex 3790.0000000000023 5800.000000000002 1874.999999999998
    vertex 5535.000000000002 5800.000000000002 1874.9999999999984
  endloop
endfacet
facet normal -3.9137862163391426e-30 1.0 1.879426180213794e-15
  outer loop
    vertex 5535.000000000002 5605.000000000002 1874.999999999997
    vertex 6075.000000000002 5605.000000000002 1724.9999999999982
    vertex 5535.000000000002 5605.000000000002 1724.9999999999968
  endloop
endfacet
facet normal -3.9137862163391426e-30 1.0 1.879426180213794e-15
  outer loop
    vertex 6075.000000000002 5605.000000000002 1724.9999999999982
    vertex 5535.000000000002 5605.000000000002 1874.999999999997
    vertex 6075.000000000002 5605.000000000002 1874.999999999998
  endloop
endfacet
facet normal 1.0 1.6382443445633407e-30 -1.8154519241430455e-16
  outer loop
    vertex 6075.000000000002 5605.000000000002 1724.9999999999982
    vertex 6075.000000000002 5445.0 1874.9999999999966
    vertex 6075.000000000002 5445.0 1724.9999999999968
  endloop
endfacet
facet normal 1.0 1.6382443445633407e-30 -1.8154519241430455e-16
  outer loop
    vertex 6075.000000000002 5445.0 1874.9999999999966
    vertex 6075.000000000002 5605.000000000002 1724.9999999999982
    vertex 6075.000000000002 5605.000000000002 1874.999999999998
  endloop
endfacet
facet normal 7.022484625800212e-17 -1.3125662173313905e-15 1.0
  outer loop
    vertex 6070.000000000001 5250.000000000002 1974.9999999999984
    vertex 930.0000000000024 5799.999999999999 1974.9999999999998
    vertex 930.0000000000024 5250.000000000002 1974.999999999999
  endloop
endfacet
facet normal 7.022484625800212e-17 -1.3125662173313905e-15 1.0
  outer loop
    vertex 930.0000000000024 5799.999999999999 1974.9999999999998
    vertex 6070.000000000001 5250.000000000002 1974.9999999999984
    vertex 6070.000000000001 5799.999999999999 1974.9999999999998
  endloop
endfacet
facet normal 1.0 1.3442004878468505e-30 -1.8154519241430455e-16
  outer loop
    vertex 5535.000000000002 5800.000000000002 1724.9999999999982
    vertex 5535.000000000002 5605.000000000002 1874.999999999997
    vertex 5535.000000000002 5605.000000000002 1724.9999999999968
  endloop
endfacet
facet normal 1.0 1.3442004878468505e-30 -1.8154519241430455e-16
  outer loop
    vertex 5535.000000000002 5605.000000000002 1874.999999999997
    vertex 5535.000000000002 5800.000000000002 1724.9999999999982
    vertex 5535.000000000002 5800.000000000002 1874.9999999999984
  endloop
endfacet
endsolid RpiCase
