solid RpiCase
facet normal -1.0 0.0 0.0
  outer loop
    vertex 925.0000000000026 5425.000000000001 1874.9999999999984
    vertex 925.0000000000026 5225.000000000001 1624.9999999999986
    vertex 925.0000000000026 5225.000000000001 1874.9999999999989
  endloop
endfacet
facet normal -1.0 0.0 0.0
  outer loop
    vertex 925.0000000000026 5225.000000000001 1624.9999999999986
    vertex 925.0000000000026 5425.000000000001 1874.9999999999984
    vertex 925.0000000000026 5425.000000000001 1624.9999999999989
  endloop
endfacet
facet normal 1.2225923677556123e-16 -0.7071067811865456 0.7071067811865495
  outer loop
    vertex 6170.000000000002 5150.000000000001 1874.9999999999989
    vertex 930.0000000000024 5250.000000000002 1974.999999999999
    vertex 830.0000000000025 5150.000000000001 1874.9999999999995
  endloop
endfacet
facet normal 1.2225923677556123e-16 -0.7071067811865456 0.7071067811865495
  outer loop
    vertex 930.0000000000024 5250.000000000002 1974.999999999999
    vertex 6170.000000000002 5150.000000000001 1874.9999999999989
    vertex 6070.000000000001 5250.000000000002 1974.9999999999984
  endloop
endfacet
facet normal -0.7071067811865476 -1.6113689369788872e-16 0.7071067811865475
  outer loop
    vertex 930.0000000000024 5250.000000000002 1974.999999999999
    vertex 830.0000000000025 5899.999999999999 1874.9999999999995
    vertex 830.0000000000025 5150.000000000001 1874.9999999999995
  endloop
endfacet
facet normal -0.7071067811865476 -1.6113689369788872e-16 0.7071067811865475
  outer loop
    vertex 830.0000000000025 5899.999999999999 1874.9999999999995
    vertex 930.0000000000024 5250.000000000002 1974.999999999999
    vertex 930.0000000000024 5799.999999999999 1974.9999999999998
  endloop
endfacet
facet normal 2.6724310612675426e-32 0.7071067811865488 0.7071067811865462
  outer loop
    vertex 930.0000000000024 5799.999999999999 1974.9999999999998
    vertex 6170.000000000002 5899.999999999999 1874.9999999999995
    vertex 830.0000000000025 5899.999999999999 1874.9999999999995
  endloop
endfacet
facet normal 2.6724310612675426e-32 0.7071067811865488 0.7071067811865462
  outer loop
    vertex 6170.000000000002 5899.999999999999 1874.9999999999995
    vertex 930.0000000000024 5799.999999999999 1974.9999999999998
    vertex 6070.000000000001 5799.999999999999 1974.9999999999998
  endloop
endfacet
facet normal 7.022484625800212e-17 -1.3125662173313905e-15 1.0
  outer loop
    vertex 6070.000000000001 5250.000000000002 1974.9999999999984
    vertex 930.0000000000024 5799.999999999999 1974.9999999999998
    vertex 930.0000000000024 5250.000000000002 1974.999999999999
  endloop
endfacet
facet normal 7.022484625800212e-17 -1.3125662173313905e-15 1.0
  outer loop
    vertex 930.0000000000024 5799.999999999999 1974.9999999999998
    vertex 6070.000000000001 5250.000000000002 1974.9999999999984
    vertex 6070.000000000001 5799.999999999999 1974.9999999999998
  endloop
endfacet
facet normal -6.75947022033953e-17 4.812742796881761e-16 -1.0
  outer loop
    vertex 830.0000000000025 5899.999999999999 1874.9999999999995
    vertex 925.0000000000026 5825.000000000002 1874.9999999999989
    vertex 830.0000000000025 5150.000000000001 1874.9999999999995
  endloop
endfacet
facet normal -6.75947022033953e-17 4.812742796881761e-16 -1.0
  outer loop
    vertex 925.0000000000026 5825.000000000002 1874.9999999999989
    vertex 830.0000000000025 5899.999999999999 1874.9999999999995
    vertex 6170.000000000002 5899.999999999999 1874.9999999999995
  endloop
endfacet
facet normal -6.75947022033953e-17 4.812742796881761e-16 -1.0
  outer loop
    vertex 925.0000000000026 5825.000000000002 1874.9999999999989
    vertex 6170.000000000002 5899.999999999999 1874.9999999999995
    vertex 1425.0000000000032 5825.000000000002 1874.9999999999984
  endloop
endfacet
facet normal -6.75947022033953e-17 4.812742796881761e-16 -1.0
  outer loop
    vertex 1425.0000000000032 5825.000000000002 1874.9999999999984
    vertex 6170.000000000002 5899.999999999999 1874.9999999999995
    vertex 3250.0000000000027 5825.000000000002 1874.9999999999984
  endloop
endfacet
facet normal -6.75947022033953e-17 4.812742796881761e-16 -1.0
  outer loop
    vertex 1425.0000000000032 5825.000000000002 1874.9999999999984
    vertex 3250.0000000000027 5825.000000000002 1874.9999999999984
    vertex 1425.0000000000032 5625.000000000002 1874.9999999999984
  endloop
endfacet
facet normal -6.75947022033953e-17 4.812742796881761e-16 -1.0
  outer loop
    vertex 1425.0000000000032 5625.000000000002 1874.9999999999984
    vertex 3250.0000000000027 5825.000000000002 1874.9999999999984
    vertex 1425.0000000000034 5225.000000000001 1874.999999999998
  endloop
endfacet
facet normal -6.75947022033953e-17 4.812742796881761e-16 -1.0
  outer loop
    vertex 1425.0000000000034 5225.000000000001 1874.999999999998
    vertex 3250.0000000000027 5825.000000000002 1874.9999999999984
    vertex 3250.0000000000014 5625.000000000002 1874.999999999998
  endloop
endfacet
facet normal -6.75947022033953e-17 4.812742796881761e-16 -1.0
  outer loop
    vertex 3250.0000000000027 5825.000000000002 1874.9999999999984
    vertex 6170.000000000002 5899.999999999999 1874.9999999999995
    vertex 3750.0000000000027 5825.000000000002 1874.9999999999989
  endloop
endfacet
facet normal -6.75947022033953e-17 4.812742796881761e-16 -1.0
  outer loop
    vertex 3750.0000000000027 5825.000000000002 1874.9999999999989
    vertex 6170.000000000002 5899.999999999999 1874.9999999999995
    vertex 3750.0000000000027 5625.000000000002 1874.9999999999984
  endloop
endfacet
facet normal -6.75947022033953e-17 4.812742796881761e-16 -1.0
  outer loop
    vertex 3750.0000000000027 5625.000000000002 1874.9999999999984
    vertex 6170.000000000002 5899.999999999999 1874.9999999999995
    vertex 5575.000000000001 5825.000000000002 1874.999999999998
  endloop
endfacet
facet normal -6.75947022033953e-17 4.812742796881761e-16 -1.0
  outer loop
    vertex 3750.0000000000027 5625.000000000002 1874.9999999999984
    vertex 5575.000000000001 5825.000000000002 1874.999999999998
    vertex 3750.0000000000027 5425.000000000001 1874.9999999999984
  endloop
endfacet
facet normal -6.75947022033953e-17 4.812742796881761e-16 -1.0
  outer loop
    vertex 3750.0000000000027 5425.000000000001 1874.9999999999984
    vertex 5575.000000000001 5825.000000000002 1874.999999999998
    vertex 3750.0000000000027 5225.000000000001 1874.9999999999984
  endloop
endfacet
facet normal -6.75947022033953e-17 4.812742796881761e-16 -1.0
  outer loop
    vertex 5575.000000000001 5825.000000000002 1874.999999999998
    vertex 6170.000000000002 5899.999999999999 1874.9999999999995
    vertex 6075.000000000002 5825.000000000002 1874.9999999999989
  endloop
endfacet
facet normal -6.75947022033953e-17 4.812742796881761e-16 -1.0
  outer loop
    vertex 6075.000000000002 5825.000000000002 1874.9999999999989
    vertex 6170.000000000002 5899.999999999999 1874.9999999999995
    vertex 6075.000000000002 5625.000000000002 1874.9999999999984
  endloop
endfacet
facet normal -6.75947022033953e-17 4.812742796881761e-16 -1.0
  outer loop
    vertex 6075.000000000002 5625.000000000002 1874.9999999999984
    vertex 6170.000000000002 5899.999999999999 1874.9999999999995
    vertex 6075.000000000002 5425.000000000001 1874.9999999999984
  endloop
endfacet
facet normal -6.75947022033953e-17 4.812742796881761e-16 -1.0
  outer loop
    vertex 6075.000000000002 5425.000000000001 1874.9999999999984
    vertex 6170.000000000002 5899.999999999999 1874.9999999999995
    vertex 6075.000000000002 5225.000000000001 1874.9999999999989
  endloop
endfacet
facet normal -6.75947022033953e-17 4.812742796881761e-16 -1.0
  outer loop
    vertex 830.0000000000025 5150.000000000001 1874.9999999999995
    vertex 925.0000000000026 5225.000000000001 1874.9999999999989
    vertex 6170.000000000002 5150.000000000001 1874.9999999999989
  endloop
endfacet
facet normal -6.75947022033953e-17 4.812742796881761e-16 -1.0
  outer loop
    vertex 925.0000000000026 5225.000000000001 1874.9999999999989
    vertex 830.0000000000025 5150.000000000001 1874.9999999999995
    vertex 925.0000000000026 5825.000000000002 1874.9999999999989
  endloop
endfacet
facet normal -6.75947022033953e-17 4.812742796881761e-16 -1.0
  outer loop
    vertex 925.0000000000026 5225.000000000001 1874.9999999999989
    vertex 925.0000000000026 5825.000000000002 1874.9999999999989
    vertex 925.0000000000026 5625.000000000002 1874.9999999999989
  endloop
endfacet
facet normal -6.75947022033953e-17 4.812742796881761e-16 -1.0
  outer loop
    vertex 925.0000000000026 5225.000000000001 1874.9999999999989
    vertex 925.0000000000026 5625.000000000002 1874.9999999999989
    vertex 925.0000000000026 5425.000000000001 1874.9999999999984
  endloop
endfacet
facet normal -6.75947022033953e-17 4.812742796881761e-16 -1.0
  outer loop
    vertex 6170.000000000002 5150.000000000001 1874.9999999999989
    vertex 925.0000000000026 5225.000000000001 1874.9999999999989
    vertex 1425.0000000000034 5225.000000000001 1874.999999999998
  endloop
endfacet
facet normal -6.75947022033953e-17 4.812742796881761e-16 -1.0
  outer loop
    vertex 6170.000000000002 5150.000000000001 1874.9999999999989
    vertex 1425.0000000000034 5225.000000000001 1874.999999999998
    vertex 3250.0000000000027 5225.000000000001 1874.999999999998
  endloop
endfacet
facet normal -6.75947022033953e-17 4.812742796881761e-16 -1.0
  outer loop
    vertex 3250.0000000000027 5225.000000000001 1874.999999999998
    vertex 1425.0000000000034 5225.000000000001 1874.999999999998
    vertex 3250.0000000000014 5625.000000000002 1874.999999999998
  endloop
endfacet
facet normal -6.75947022033953e-17 4.812742796881761e-16 -1.0
  outer loop
    vertex 3250.0000000000027 5225.000000000001 1874.999999999998
    vertex 3250.0000000000014 5625.000000000002 1874.999999999998
    vertex 3250.0000000000027 5425.000000000001 1874.999999999998
  endloop
endfacet
facet normal -6.75947022033953e-17 4.812742796881761e-16 -1.0
  outer loop
    vertex 6170.000000000002 5150.000000000001 1874.9999999999989
    vertex 3250.0000000000027 5225.000000000001 1874.999999999998
    vertex 3750.0000000000027 5225.000000000001 1874.9999999999984
  endloop
endfacet
facet normal -6.75947022033953e-17 4.812742796881761e-16 -1.0
  outer loop
    vertex 6170.000000000002 5150.000000000001 1874.9999999999989
    vertex 3750.0000000000027 5225.000000000001 1874.9999999999984
    vertex 5575.000000000001 5225.000000000001 1874.9999999999984
  endloop
endfacet
facet normal -6.75947022033953e-17 4.812742796881761e-16 -1.0
  outer loop
    vertex 5575.000000000001 5225.000000000001 1874.9999999999984
    vertex 3750.0000000000027 5225.000000000001 1874.9999999999984
    vertex 5575.000000000001 5825.000000000002 1874.999999999998
  endloop
endfacet
facet normal -6.75947022033953e-17 4.812742796881761e-16 -1.0
  outer loop
    vertex 5575.000000000001 5225.000000000001 1874.9999999999984
    vertex 5575.000000000001 5825.000000000002 1874.999999999998
    vertex 5575.000000000001 5625.000000000002 1874.9999999999984
  endloop
endfacet
facet normal -6.75947022033953e-17 4.812742796881761e-16 -1.0
  outer loop
    vertex 5575.000000000001 5225.000000000001 1874.9999999999984
    vertex 5575.000000000001 5625.000000000002 1874.9999999999984
    vertex 5575.000000000001 5425.000000000001 1874.9999999999984
  endloop
endfacet
facet normal -6.75947022033953e-17 4.812742796881761e-16 -1.0
  outer loop
    vertex 6170.000000000002 5150.000000000001 1874.9999999999989
    vertex 5575.000000000001 5225.000000000001 1874.9999999999984
    vertex 6075.000000000002 5225.000000000001 1874.9999999999989
  endloop
endfacet
facet normal -6.75947022033953e-17 4.812742796881761e-16 -1.0
  outer loop
    vertex 6170.000000000002 5150.000000000001 1874.9999999999989
    vertex 6075.000000000002 5225.000000000001 1874.9999999999989
    vertex 6170.000000000002 5899.999999999999 1874.9999999999995
  endloop
endfacet
facet normal -6.75947022033953e-17 4.812742796881761e-16 -1.0
  outer loop
    vertex 6075.000000000002 5625.000000000002 1874.9999999999984
    vertex 5575.000000000001 5425.000000000001 1874.9999999999984
    vertex 5575.000000000001 5625.000000000002 1874.9999999999984
  endloop
endfacet
facet normal -6.75947022033953e-17 4.812742796881761e-16 -1.0
  outer loop
    vertex 5575.000000000001 5425.000000000001 1874.9999999999984
    vertex 6075.000000000002 5625.000000000002 1874.9999999999984
    vertex 6075.000000000002 5425.000000000001 1874.9999999999984
  endloop
endfacet
facet normal -6.75947022033953e-17 4.812742796881761e-16 -1.0
  outer loop
    vertex 3750.0000000000027 5625.000000000002 1874.9999999999984
    vertex 3250.0000000000027 5425.000000000001 1874.999999999998
    vertex 3250.0000000000014 5625.000000000002 1874.999999999998
  endloop
endfacet
facet normal -6.75947022033953e-17 4.812742796881761e-16 -1.0
  outer loop
    vertex 3250.0000000000027 5425.000000000001 1874.999999999998
    vertex 3750.0000000000027 5625.000000000002 1874.9999999999984
    vertex 3750.0000000000027 5425.000000000001 1874.9999999999984
  endloop
endfacet
facet normal -6.75947022033953e-17 4.812742796881761e-16 -1.0
  outer loop
    vertex 1425.0000000000032 5625.000000000002 1874.9999999999984
    vertex 925.0000000000026 5425.000000000001 1874.9999999999984
    vertex 925.0000000000026 5625.000000000002 1874.9999999999989
  endloop
endfacet
facet normal -6.75947022033953e-17 4.812742796881761e-16 -1.0
  outer loop
    vertex 925.0000000000026 5425.000000000001 1874.9999999999984
    vertex 1425.0000000000032 5625.000000000002 1874.9999999999984
    vertex 1425.0000000000027 5425.000000000001 1874.999999999998
  endloop
endfacet
facet normal -6.75947022033953e-17 4.812742796881761e-16 -1.0
  outer loop
    vertex 1425.0000000000027 5425.000000000001 1874.999999999998
    vertex 1425.0000000000032 5625.000000000002 1874.9999999999984
    vertex 1425.0000000000034 5225.000000000001 1874.999999999998
  endloop
endfacet
facet normal 0.7071067811865462 -1.1504424736105102e-15 0.7071067811865488
  outer loop
    vertex 6170.000000000002 5150.000000000001 1874.9999999999989
    vertex 6070.000000000001 5799.999999999999 1974.9999999999998
    vertex 6070.000000000001 5250.000000000002 1974.9999999999984
  endloop
endfacet
facet normal 0.7071067811865462 -1.1504424736105102e-15 0.7071067811865488
  outer loop
    vertex 6070.000000000001 5799.999999999999 1974.9999999999998
    vertex 6170.000000000002 5150.000000000001 1874.9999999999989
    vertex 6170.000000000002 5899.999999999999 1874.9999999999995
  endloop
endfacet
facet normal 0.0 1.0 0.0
  outer loop
    vertex 925.0000000000026 5825.000000000002 1874.9999999999989
    vertex 1425.0000000000032 5825.000000000002 1624.9999999999989
    vertex 925.0000000000026 5825.000000000002 1624.9999999999989
  endloop
endfacet
facet normal 0.0 1.0 0.0
  outer loop
    vertex 1425.0000000000032 5825.000000000002 1624.9999999999989
    vertex 925.0000000000026 5825.000000000002 1874.9999999999989
    vertex 1425.0000000000032 5825.000000000002 1874.9999999999984
  endloop
endfacet
facet normal 1.0 0.0 0.0
  outer loop
    vertex 6075.000000000002 5825.000000000002 1624.9999999999986
    vertex 6075.000000000002 5625.000000000002 1874.9999999999984
    vertex 6075.000000000002 5625.000000000002 1624.9999999999986
  endloop
endfacet
facet normal 1.0 0.0 0.0
  outer loop
    vertex 6075.000000000002 5625.000000000002 1874.9999999999984
    vertex 6075.000000000002 5825.000000000002 1624.9999999999986
    vertex 6075.000000000002 5825.000000000002 1874.9999999999989
  endloop
endfacet
facet normal 0.0 -1.0 0.0
  outer loop
    vertex 6075.000000000002 5225.000000000001 1874.9999999999989
    vertex 5575.000000000001 5225.000000000001 1624.9999999999986
    vertex 6075.000000000002 5225.000000000001 1624.9999999999986
  endloop
endfacet
facet normal 0.0 -1.0 0.0
  outer loop
    vertex 5575.000000000001 5225.000000000001 1624.9999999999986
    vertex 6075.000000000002 5225.000000000001 1874.9999999999989
    vertex 5575.000000000001 5225.000000000001 1874.9999999999984
  endloop
endfacet
facet normal 3.6095570976613044e-16 9.023892744153263e-16 -1.0
  outer loop
    vertex 3250.0000000000027 5825.000000000002 1624.9999999999989
    vertex 3750.0000000000027 5625.000000000002 1624.9999999999989
    vertex 3250.0000000000014 5625.000000000002 1624.9999999999989
  endloop
endfacet
facet normal 3.6095570976613044e-16 9.023892744153263e-16 -1.0
  outer loop
    vertex 3750.0000000000027 5625.000000000002 1624.9999999999989
    vertex 3250.0000000000027 5825.000000000002 1624.9999999999989
    vertex 3750.0000000000027 5825.000000000002 1624.999999999999
  endloop
endfacet
facet normal 0.0 -1.0 0.0
  outer loop
    vertex 6075.000000000002 5625.000000000002 1874.9999999999984
    vertex 5575.000000000001 5625.000000000002 1624.9999999999989
    vertex 6075.000000000002 5625.000000000002 1624.9999999999986
  endloop
endfacet
facet normal 0.0 -1.0 0.0
  outer loop
    vertex 5575.000000000001 5625.000000000002 1624.9999999999989
    vertex 6075.000000000002 5625.000000000002 1874.9999999999984
    vertex 5575.000000000001 5625.000000000002 1874.9999999999984
  endloop
endfacet
facet normal 0.0 1.0 0.0
  outer loop
    vertex 925.0000000000026 5425.000000000001 1624.9999999999989
    vertex 1425.0000000000027 5425.000000000001 1874.999999999998
    vertex 1425.0000000000027 5425.000000000001 1624.9999999999986
  endloop
endfacet
facet normal 0.0 1.0 0.0
  outer loop
    vertex 1425.0000000000027 5425.000000000001 1874.999999999998
    vertex 925.0000000000026 5425.000000000001 1624.9999999999989
    vertex 925.0000000000026 5425.000000000001 1874.9999999999984
  endloop
endfacet
facet normal -1.0 0.0 0.0
  outer loop
    vertex 925.0000000000026 5825.000000000002 1874.9999999999989
    vertex 925.0000000000026 5625.000000000002 1624.9999999999989
    vertex 925.0000000000026 5625.000000000002 1874.9999999999989
  endloop
endfacet
facet normal -1.0 0.0 0.0
  outer loop
    vertex 925.0000000000026 5625.000000000002 1624.9999999999989
    vertex 925.0000000000026 5825.000000000002 1874.9999999999989
    vertex 925.0000000000026 5825.000000000002 1624.9999999999989
  endloop
endfacet
facet normal 1.0 0.0 0.0
  outer loop
    vertex 6075.000000000002 5425.000000000001 1624.9999999999986
    vertex 6075.000000000002 5225.000000000001 1874.9999999999989
    vertex 6075.000000000002 5225.000000000001 1624.9999999999986
  endloop
endfacet
facet normal 1.0 0.0 0.0
  outer loop
    vertex 6075.000000000002 5225.000000000001 1874.9999999999989
    vertex 6075.000000000002 5425.000000000001 1624.9999999999986
    vertex 6075.000000000002 5425.000000000001 1874.9999999999984
  endloop
endfacet
facet normal -1.8047785488306517e-16 4.511946372076634e-16 -1.0
  outer loop
    vertex 1425.0000000000027 5425.000000000001 1624.9999999999986
    vertex 925.0000000000026 5225.000000000001 1624.9999999999986
    vertex 925.0000000000026 5425.000000000001 1624.9999999999989
  endloop
endfacet
facet normal -1.8047785488306517e-16 4.511946372076634e-16 -1.0
  outer loop
    vertex 925.0000000000026 5225.000000000001 1624.9999999999986
    vertex 1425.0000000000027 5425.000000000001 1624.9999999999986
    vertex 1425.0000000000034 5225.000000000001 1624.9999999999986
  endloop
endfacet
facet normal 0.0 0.0 -1.0
  outer loop
    vertex 1425.0000000000032 5825.000000000002 1624.9999999999989
    vertex 925.0000000000026 5625.000000000002 1624.9999999999989
    vertex 925.0000000000026 5825.000000000002 1624.9999999999989
  endloop
endfacet
facet normal 0.0 0.0 -1.0
  outer loop
    vertex 925.0000000000026 5625.000000000002 1624.9999999999989
    vertex 1425.0000000000032 5825.000000000002 1624.9999999999989
    vertex 1425.0000000000032 5625.000000000002 1624.9999999999989
  endloop
endfacet
facet normal 0.0 0.0 -1.0
  outer loop
    vertex 6075.000000000002 5425.000000000001 1624.9999999999986
    vertex 5575.000000000001 5225.000000000001 1624.9999999999986
    vertex 5575.000000000001 5425.000000000001 1624.9999999999986
  endloop
endfacet
facet normal 0.0 0.0 -1.0
  outer loop
    vertex 5575.000000000001 5225.000000000001 1624.9999999999986
    vertex 6075.000000000002 5425.000000000001 1624.9999999999986
    vertex 6075.000000000002 5225.000000000001 1624.9999999999986
  endloop
endfacet
facet normal 0.0 0.0 -1.0
  outer loop
    vertex 3750.0000000000027 5425.000000000001 1624.9999999999986
    vertex 3250.0000000000027 5225.000000000001 1624.9999999999986
    vertex 3250.0000000000027 5425.000000000001 1624.9999999999986
  endloop
endfacet
facet normal 0.0 0.0 -1.0
  outer loop
    vertex 3250.0000000000027 5225.000000000001 1624.9999999999986
    vertex 3750.0000000000027 5425.000000000001 1624.9999999999986
    vertex 3750.0000000000027 5225.000000000001 1624.9999999999986
  endloop
endfacet
facet normal -1.8047785488306532e-16 -4.511946372076636e-16 -1.0
  outer loop
    vertex 6075.000000000002 5825.000000000002 1624.9999999999986
    vertex 5575.000000000001 5625.000000000002 1624.9999999999989
    vertex 5575.000000000001 5825.000000000002 1624.9999999999986
  endloop
endfacet
facet normal -1.8047785488306532e-16 -4.511946372076636e-16 -1.0
  outer loop
    vertex 5575.000000000001 5625.000000000002 1624.9999999999989
    vertex 6075.000000000002 5825.000000000002 1624.9999999999986
    vertex 6075.000000000002 5625.000000000002 1624.9999999999986
  endloop
endfacet
facet normal -1.0 0.0 0.0
  outer loop
    vertex 5575.000000000001 5825.000000000002 1874.999999999998
    vertex 5575.000000000001 5625.000000000002 1624.9999999999989
    vertex 5575.000000000001 5625.000000000002 1874.9999999999984
  endloop
endfacet
facet normal -1.0 0.0 0.0
  outer loop
    vertex 5575.000000000001 5625.000000000002 1624.9999999999989
    vertex 5575.000000000001 5825.000000000002 1874.999999999998
    vertex 5575.000000000001 5825.000000000002 1624.9999999999986
  endloop
endfacet
facet normal 1.0 0.0 0.0
  outer loop
    vertex 3750.0000000000027 5825.000000000002 1624.999999999999
    vertex 3750.0000000000027 5625.000000000002 1874.9999999999984
    vertex 3750.0000000000027 5625.000000000002 1624.9999999999989
  endloop
endfacet
facet normal 1.0 0.0 0.0
  outer loop
    vertex 3750.0000000000027 5625.000000000002 1874.9999999999984
    vertex 3750.0000000000027 5825.000000000002 1624.999999999999
    vertex 3750.0000000000027 5825.000000000002 1874.9999999999989
  endloop
endfacet
facet normal 0.0 1.0 0.0
  outer loop
    vertex 5575.000000000001 5825.000000000002 1874.999999999998
    vertex 6075.000000000002 5825.000000000002 1624.9999999999986
    vertex 5575.000000000001 5825.000000000002 1624.9999999999986
  endloop
endfacet
facet normal 0.0 1.0 0.0
  outer loop
    vertex 6075.000000000002 5825.000000000002 1624.9999999999986
    vertex 5575.000000000001 5825.000000000002 1874.999999999998
    vertex 6075.000000000002 5825.000000000002 1874.9999999999989
  endloop
endfacet
facet normal 0.0 -1.0 0.0
  outer loop
    vertex 3750.0000000000027 5625.000000000002 1624.9999999999989
    vertex 3250.0000000000014 5625.000000000002 1874.999999999998
    vertex 3250.0000000000014 5625.000000000002 1624.9999999999989
  endloop
endfacet
facet normal 0.0 -1.0 0.0
  outer loop
    vertex 3250.0000000000014 5625.000000000002 1874.999999999998
    vertex 3750.0000000000027 5625.000000000002 1624.9999999999989
    vertex 3750.0000000000027 5625.000000000002 1874.9999999999984
  endloop
endfacet
facet normal 1.0 0.0 0.0
  outer loop
    vertex 3750.0000000000027 5425.000000000001 1624.9999999999986
    vertex 3750.0000000000027 5225.000000000001 1874.9999999999984
    vertex 3750.0000000000027 5225.000000000001 1624.9999999999986
  endloop
endfacet
facet normal 1.0 0.0 0.0
  outer loop
    vertex 3750.0000000000027 5225.000000000001 1874.9999999999984
    vertex 3750.0000000000027 5425.000000000001 1624.9999999999986
    vertex 3750.0000000000027 5425.000000000001 1874.9999999999984
  endloop
endfacet
facet normal -1.0 0.0 0.0
  outer loop
    vertex 5575.000000000001 5425.000000000001 1874.9999999999984
    vertex 5575.000000000001 5225.000000000001 1624.9999999999986
    vertex 5575.000000000001 5225.000000000001 1874.9999999999984
  endloop
endfacet
facet normal -1.0 0.0 0.0
  outer loop
    vertex 5575.000000000001 5225.000000000001 1624.9999999999986
    vertex 5575.000000000001 5425.000000000001 1874.9999999999984
    vertex 5575.000000000001 5425.000000000001 1624.9999999999986
  endloop
endfacet
facet normal 0.0 -1.0 0.0
  outer loop
    vertex 3750.0000000000027 5225.000000000001 1874.9999999999984
    vertex 3250.0000000000027 5225.000000000001 1624.9999999999986
    vertex 3750.0000000000027 5225.000000000001 1624.9999999999986
  endloop
endfacet
facet normal 0.0 -1.0 0.0
  outer loop
    vertex 3250.0000000000027 5225.000000000001 1624.9999999999986
    vertex 3750.0000000000027 5225.000000000001 1874.9999999999984
    vertex 3250.0000000000027 5225.000000000001 1874.999999999998
  endloop
endfacet
facet normal 0.0 1.0 0.0
  outer loop
    vertex 5575.000000000001 5425.000000000001 1874.9999999999984
    vertex 6075.000000000002 5425.000000000001 1624.9999999999986
    vertex 5575.000000000001 5425.000000000001 1624.9999999999986
  endloop
endfacet
facet normal 0.0 1.0 0.0
  outer loop
    vertex 6075.000000000002 5425.000000000001 1624.9999999999986
    vertex 5575.000000000001 5425.000000000001 1874.9999999999984
    vertex 6075.000000000002 5425.000000000001 1874.9999999999984
  endloop
endfacet
facet normal 1.0 2.7071678232459817e-15 0.0
  outer loop
    vertex 1425.0000000000027 5425.000000000001 1624.9999999999986
    vertex 1425.0000000000034 5225.000000000001 1874.999999999998
    vertex 1425.0000000000034 5225.000000000001 1624.9999999999986
  endloop
endfacet
facet normal 1.0 2.7071678232459817e-15 0.0
  outer loop
    vertex 1425.0000000000034 5225.000000000001 1874.999999999998
    vertex 1425.0000000000027 5425.000000000001 1624.9999999999986
    vertex 1425.0000000000027 5425.000000000001 1874.999999999998
  endloop
endfacet
facet normal -1.0 0.0 0.0
  outer loop
    vertex 3250.0000000000027 5425.000000000001 1874.999999999998
    vertex 3250.0000000000027 5225.000000000001 1624.9999999999986
    vertex 3250.0000000000027 5225.000000000001 1874.999999999998
  endloop
endfacet
facet normal -1.0 0.0 0.0
  outer loop
    vertex 3250.0000000000027 5225.000000000001 1624.9999999999986
    vertex 3250.0000000000027 5425.000000000001 1874.999999999998
    vertex 3250.0000000000027 5425.000000000001 1624.9999999999986
  endloop
endfacet
facet normal 0.0 -1.0 0.0
  outer loop
    vertex 1425.0000000000034 5225.000000000001 1874.999999999998
    vertex 925.0000000000026 5225.000000000001 1624.9999999999986
    vertex 1425.0000000000034 5225.000000000001 1624.9999999999986
  endloop
endfacet
facet normal 0.0 -1.0 0.0
  outer loop
    vertex 925.0000000000026 5225.000000000001 1624.9999999999986
    vertex 1425.0000000000034 5225.000000000001 1874.999999999998
    vertex 925.0000000000026 5225.000000000001 1874.9999999999989
  endloop
endfacet
facet normal 0.0 1.0 0.0
  outer loop
    vertex 3250.0000000000027 5425.000000000001 1874.999999999998
    vertex 3750.0000000000027 5425.000000000001 1624.9999999999986
    vertex 3250.0000000000027 5425.000000000001 1624.9999999999986
  endloop
endfacet
facet normal 0.0 1.0 0.0
  outer loop
    vertex 3750.0000000000027 5425.000000000001 1624.9999999999986
    vertex 3250.0000000000027 5425.000000000001 1874.999999999998
    vertex 3750.0000000000027 5425.000000000001 1874.9999999999984
  endloop
endfacet
facet normal 1.0 0.0 0.0
  outer loop
    vertex 1425.0000000000032 5825.000000000002 1624.9999999999989
    vertex 1425.0000000000032 5625.000000000002 1874.9999999999984
    vertex 1425.0000000000032 5625.000000000002 1624.9999999999989
  endloop
endfacet
facet normal 1.0 0.0 0.0
  outer loop
    vertex 1425.0000000000032 5625.000000000002 1874.9999999999984
    vertex 1425.0000000000032 5825.000000000002 1624.9999999999989
    vertex 1425.0000000000032 5825.000000000002 1874.9999999999984
  endloop
endfacet
facet normal -1.0 5.4143356464919635e-15 -7.50464780617737e-32
  outer loop
    vertex 3250.0000000000027 5825.000000000002 1874.9999999999984
    vertex 3250.0000000000014 5625.000000000002 1624.9999999999989
    vertex 3250.0000000000014 5625.000000000002 1874.999999999998
  endloop
endfacet
facet normal -1.0 5.4143356464919635e-15 -7.50464780617737e-32
  outer loop
    vertex 3250.0000000000014 5625.000000000002 1624.9999999999989
    vertex 3250.0000000000027 5825.000000000002 1874.9999999999984
    vertex 3250.0000000000027 5825.000000000002 1624.9999999999989
  endloop
endfacet
facet normal 0.0 1.0 0.0
  outer loop
    vertex 3250.0000000000027 5825.000000000002 1874.9999999999984
    vertex 3750.0000000000027 5825.000000000002 1624.999999999999
    vertex 3250.0000000000027 5825.000000000002 1624.9999999999989
  endloop
endfacet
facet normal 0.0 1.0 0.0
  outer loop
    vertex 3750.0000000000027 5825.000000000002 1624.999999999999
    vertex 3250.0000000000027 5825.000000000002 1874.9999999999984
    vertex 3750.0000000000027 5825.000000000002 1874.9999999999989
  endloop
endfacet
facet normal 0.0 -1.0 0.0
  outer loop
    vertex 1425.0000000000032 5625.000000000002 1874.9999999999984
    vertex 925.0000000000026 5625.000000000002 1624.9999999999989
    vertex 1425.0000000000032 5625.000000000002 1624.9999999999989
  endloop
endfacet
facet normal 0.0 -1.0 0.0
  outer loop
    vertex 925.0000000000026 5625.000000000002 1624.9999999999989
    vertex 1425.0000000000032 5625.000000000002 1874.9999999999984
    vertex 925.0000000000026 5625.000000000002 1874.9999999999989
  endloop
endfacet
endsolid RpiCase
